<?xml version="1.0" encoding="UTF-8" standalone="yes"?><svg xmlns="http://www.w3.org/2000/svg" xmlns:xlink="http://www.w3.org/1999/xlink" height="749px" style="width:683px;height:749px;" version="1.1" viewBox="0 0 683 749" width="683px"><defs><filter height="300%" id="f1" width="300%" x="-1" y="-1"><feGaussianBlur result="blurOut" stdDeviation="2.0"/><feColorMatrix in="blurOut" result="blurOut2" type="matrix" values="0 0 0 0 0 0 0 0 0 0 0 0 0 0 0 0 0 0 .4 0"/><feOffset dx="4.0" dy="4.0" in="blurOut2" result="blurOut3"/><feBlend in="SourceGraphic" in2="blurOut3" mode="normal"/></filter></defs><g><text fill="#000000" font-family="sans-serif" font-size="18" lengthAdjust="spacingAndGlyphs" textLength="296" x="198.5" y="16.708">Diagramme de classes - Affichage</text><rect fill="#FEFECE" filter="url(#f1)" height="150.4375" style="stroke: #A80036; stroke-width: 1.5;" width="276" x="398.5" y="28.9531"/><ellipse cx="510.25" cy="44.9531" fill="#B4A7E5" rx="11" ry="11" style="stroke: #A80036; stroke-width: 1.0;"/><path d="M511.2031,41.7344 L511.2031,48.25 L512.9219,48.25 C513.375,48.25 513.5156,48.2813 513.6875,48.4063 C513.9219,48.5781 514.0313,48.8281 514.0313,49.1094 C514.0313,49.6719 513.6719,49.9531 512.9219,49.9531 L507.7813,49.9531 C507.375,49.9531 507.1719,49.9063 507.0156,49.7813 C506.7969,49.625 506.6563,49.3594 506.6563,49.1094 C506.6563,48.8125 506.8125,48.5313 507.0625,48.375 C507.2188,48.2656 507.3438,48.25 507.7813,48.25 L509.5,48.25 L509.5,41.7344 L507.7813,41.7344 C507.3594,41.7344 507.1719,41.7031 507.0156,41.5938 C506.7969,41.4219 506.6563,41.1719 506.6563,40.8906 C506.6563,40.6094 506.8125,40.3125 507.0625,40.1563 C507.2188,40.0625 507.3438,40.0469 507.7813,40.0469 L512.9219,40.0469 C513.375,40.0469 513.5156,40.0781 513.6875,40.1875 C513.9219,40.3594 514.0313,40.625 514.0313,40.8906 C514.0313,41.1875 513.8906,41.4688 513.625,41.625 C513.5,41.7031 513.3125,41.7344 512.9219,41.7344 Z "/><text fill="#000000" font-family="sans-serif" font-size="12" font-style="italic" lengthAdjust="spacingAndGlyphs" textLength="44" x="530.75" y="49.1074">Display</text><line style="stroke: #A80036; stroke-width: 1.5;" x1="399.5" x2="673.5" y1="60.9531" y2="60.9531"/><line style="stroke: #A80036; stroke-width: 1.5;" x1="399.5" x2="673.5" y1="68.9531" y2="68.9531"/><polygon fill="#4177AF" points="409.5,76.8555,405.5,82.8555,413.5,82.8555" style="stroke: #1963A0; stroke-width: 1.0;"/><text fill="#000000" font-family="sans-serif" font-size="11" font-style="italic" lengthAdjust="spacingAndGlyphs" textLength="56" x="418.5" y="83.1636">int width()</text><polygon fill="#4177AF" points="409.5,89.6602,405.5,95.6602,413.5,95.6602" style="stroke: #1963A0; stroke-width: 1.0;"/><text fill="#000000" font-family="sans-serif" font-size="11" font-style="italic" lengthAdjust="spacingAndGlyphs" textLength="61" x="418.5" y="95.9683">int height()</text><polygon fill="#4177AF" points="409.5,102.4648,405.5,108.4648,413.5,108.4648" style="stroke: #1963A0; stroke-width: 1.0;"/><text fill="#000000" font-family="sans-serif" font-size="11" font-style="italic" lengthAdjust="spacingAndGlyphs" textLength="63" x="418.5" y="108.7729">void flush()</text><polygon fill="#4177AF" points="409.5,115.2695,405.5,121.2695,413.5,121.2695" style="stroke: #1963A0; stroke-width: 1.0;"/><text fill="#000000" font-family="sans-serif" font-size="11" font-style="italic" lengthAdjust="spacingAndGlyphs" textLength="64" x="418.5" y="121.5776">void clear()</text><polygon fill="#4177AF" points="409.5,128.0742,405.5,134.0742,413.5,134.0742" style="stroke: #1963A0; stroke-width: 1.0;"/><text fill="#000000" font-family="sans-serif" font-size="11" font-style="italic" lengthAdjust="spacingAndGlyphs" textLength="88" x="418.5" y="134.3823">void write(int c)</text><polygon fill="#4177AF" points="409.5,140.8789,405.5,146.8789,413.5,146.8789" style="stroke: #1963A0; stroke-width: 1.0;"/><text fill="#000000" font-family="sans-serif" font-size="11" lengthAdjust="spacingAndGlyphs" textLength="148" x="418.5" y="147.187">void write(int c, int length)</text><polygon fill="#4177AF" points="409.5,153.6836,405.5,159.6836,413.5,159.6836" style="stroke: #1963A0; stroke-width: 1.0;"/><text fill="#000000" font-family="sans-serif" font-size="11" lengthAdjust="spacingAndGlyphs" textLength="130" x="418.5" y="159.9917">void write(byte[] bytes)</text><polygon fill="#4177AF" points="409.5,166.4883,405.5,172.4883,413.5,172.4883" style="stroke: #1963A0; stroke-width: 1.0;"/><text fill="#000000" font-family="sans-serif" font-size="11" lengthAdjust="spacingAndGlyphs" textLength="250" x="418.5" y="172.7964">void write(byte[] bytes, int offset, int length)</text><rect fill="#FEFECE" filter="url(#f1)" height="278.4844" style="stroke: #A80036; stroke-width: 1.5;" width="276" x="398.5" y="258.4531"/><ellipse cx="497.25" cy="274.4531" fill="#ADD1B2" rx="11" ry="11" style="stroke: #A80036; stroke-width: 1.0;"/><path d="M499.5938,270.125 L499.7656,270.2031 C499.9844,269.8906 500.1875,269.7969 500.4844,269.7969 C500.7813,269.7969 501.0625,269.9375 501.2188,270.2031 C501.3125,270.3594 501.3281,270.4844 501.3281,270.9219 L501.3281,272.3438 C501.3281,272.7656 501.2969,272.9531 501.1875,273.1094 C501.0156,273.3281 500.75,273.4688 500.4844,273.4688 C500.2656,273.4688 500.0313,273.3594 499.8906,273.2188 C499.75,273.0938 499.7188,272.9688 499.6563,272.5625 C499.5625,272.1563 499.3906,271.9375 498.9063,271.6563 C498.4375,271.4063 497.8281,271.25 497.25,271.25 C495.5156,271.25 494.2656,272.5625 494.2656,274.3438 L494.2656,275.4375 C494.2656,277.1406 495.5625,278.2344 497.6094,278.2344 C498.375,278.2344 499.0625,278.1094 499.4844,277.8438 C499.6719,277.75 499.6719,277.75 500.125,277.2656 C500.3125,277.0781 500.5156,277 500.7344,277 C501.2031,277 501.5938,277.3906 501.5938,277.8438 C501.5938,278.2344 501.2656,278.6875 500.6875,279.0938 C499.9375,279.6406 498.7813,279.9375 497.5625,279.9375 C494.6719,279.9375 492.5625,278.0469 492.5625,275.4688 L492.5625,274.3438 C492.5625,271.625 494.5625,269.5469 497.1875,269.5469 C498.0625,269.5469 498.6563,269.6875 499.5938,270.125 Z "/><text fill="#000000" font-family="sans-serif" font-size="12" lengthAdjust="spacingAndGlyphs" textLength="70" x="517.75" y="278.6074">AnsiDisplay</text><line style="stroke: #A80036; stroke-width: 1.5;" x1="399.5" x2="673.5" y1="290.4531" y2="290.4531"/><rect fill="none" height="6" style="stroke: #C82930; stroke-width: 1.0;" width="6" x="406.5" y="299.3555"/><text fill="#000000" font-family="sans-serif" font-size="11" lengthAdjust="spacingAndGlyphs" text-decoration="underline" textLength="82" x="418.5" y="304.6636">String ESCAPE</text><line style="stroke: #000000; stroke-width: 1.0;" x1="418.5" x2="500.5" y1="306.6636" y2="306.6636"/><rect fill="none" height="6" style="stroke: #C82930; stroke-width: 1.0;" width="6" x="406.5" y="312.1602"/><text fill="#000000" font-family="sans-serif" font-size="11" lengthAdjust="spacingAndGlyphs" textLength="112" x="418.5" y="317.4683">StringBuilder buffer</text><rect fill="none" height="6" style="stroke: #C82930; stroke-width: 1.0;" width="6" x="406.5" y="324.9648"/><text fill="#000000" font-family="sans-serif" font-size="11" lengthAdjust="spacingAndGlyphs" textLength="102" x="418.5" y="330.2729">OutputStream out</text><line style="stroke: #A80036; stroke-width: 1.5;" x1="399.5" x2="673.5" y1="336.8672" y2="336.8672"/><ellipse cx="409.5" cy="348.7695" fill="#84BE84" rx="3" ry="3" style="stroke: #038048; stroke-width: 1.0;"/><text fill="#000000" font-family="sans-serif" font-size="11" lengthAdjust="spacingAndGlyphs" textLength="175" x="418.5" y="351.0776">AnsiDisplay(OutputStream out)</text><ellipse cx="409.5" cy="361.5742" fill="#84BE84" rx="3" ry="3" style="stroke: #038048; stroke-width: 1.0;"/><text fill="#000000" font-family="sans-serif" font-size="11" lengthAdjust="spacingAndGlyphs" textLength="88" x="418.5" y="363.8823">void write(int b)</text><ellipse cx="409.5" cy="374.3789" fill="#84BE84" rx="3" ry="3" style="stroke: #038048; stroke-width: 1.0;"/><text fill="#000000" font-family="sans-serif" font-size="11" lengthAdjust="spacingAndGlyphs" textLength="250" x="418.5" y="376.687">void write(byte[] bytes, int offset, int length)</text><ellipse cx="409.5" cy="387.1836" fill="#84BE84" rx="3" ry="3" style="stroke: #038048; stroke-width: 1.0;"/><text fill="#000000" font-family="sans-serif" font-size="11" lengthAdjust="spacingAndGlyphs" textLength="63" x="418.5" y="389.4917">void flush()</text><ellipse cx="409.5" cy="399.9883" fill="#84BE84" rx="3" ry="3" style="stroke: #038048; stroke-width: 1.0;"/><text fill="#000000" font-family="sans-serif" font-size="11" lengthAdjust="spacingAndGlyphs" textLength="173" x="418.5" y="402.2964">void setCursor(int row, int col)</text><ellipse cx="409.5" cy="412.793" fill="#84BE84" rx="3" ry="3" style="stroke: #038048; stroke-width: 1.0;"/><text fill="#000000" font-family="sans-serif" font-size="11" lengthAdjust="spacingAndGlyphs" textLength="98" x="418.5" y="415.1011">void hideCursor()</text><ellipse cx="409.5" cy="425.5977" fill="#84BE84" rx="3" ry="3" style="stroke: #038048; stroke-width: 1.0;"/><text fill="#000000" font-family="sans-serif" font-size="11" lengthAdjust="spacingAndGlyphs" textLength="104" x="418.5" y="427.9058">void showCursor()</text><ellipse cx="409.5" cy="438.4023" fill="#84BE84" rx="3" ry="3" style="stroke: #038048; stroke-width: 1.0;"/><text fill="#000000" font-family="sans-serif" font-size="11" lengthAdjust="spacingAndGlyphs" textLength="101" x="418.5" y="440.7104">void saveCursor()</text><ellipse cx="409.5" cy="451.207" fill="#84BE84" rx="3" ry="3" style="stroke: #038048; stroke-width: 1.0;"/><text fill="#000000" font-family="sans-serif" font-size="11" lengthAdjust="spacingAndGlyphs" textLength="116" x="418.5" y="453.5151">void restoreCursor()</text><ellipse cx="409.5" cy="464.0117" fill="#84BE84" rx="3" ry="3" style="stroke: #038048; stroke-width: 1.0;"/><text fill="#000000" font-family="sans-serif" font-size="11" lengthAdjust="spacingAndGlyphs" textLength="63" x="418.5" y="466.3198">void clear()</text><ellipse cx="409.5" cy="476.8164" fill="#84BE84" rx="3" ry="3" style="stroke: #038048; stroke-width: 1.0;"/><text fill="#000000" font-family="sans-serif" font-size="11" lengthAdjust="spacingAndGlyphs" textLength="86" x="418.5" y="479.1245">void clearLine()</text><ellipse cx="409.5" cy="489.6211" fill="#84BE84" rx="3" ry="3" style="stroke: #038048; stroke-width: 1.0;"/><text fill="#000000" font-family="sans-serif" font-size="11" lengthAdjust="spacingAndGlyphs" textLength="219" x="418.5" y="491.9292">void clear(ClearLineDirection direction)</text><ellipse cx="409.5" cy="502.4258" fill="#84BE84" rx="3" ry="3" style="stroke: #038048; stroke-width: 1.0;"/><text fill="#000000" font-family="sans-serif" font-size="11" lengthAdjust="spacingAndGlyphs" textLength="236" x="418.5" y="504.7339">void clear(ClearScreenDirection direction)</text><ellipse cx="409.5" cy="515.2305" fill="#84BE84" rx="3" ry="3" style="stroke: #038048; stroke-width: 1.0;"/><text fill="#000000" font-family="sans-serif" font-size="11" lengthAdjust="spacingAndGlyphs" textLength="192" x="418.5" y="517.5386">void setAttribute(Attribute... attrs)</text><ellipse cx="409.5" cy="528.0352" fill="#84BE84" rx="3" ry="3" style="stroke: #038048; stroke-width: 1.0;"/><text fill="#000000" font-family="sans-serif" font-size="11" lengthAdjust="spacingAndGlyphs" textLength="177" x="418.5" y="530.3433">void atomically(Runnable block)</text><rect fill="#FEFECE" filter="url(#f1)" height="124.8281" style="stroke: #A80036; stroke-width: 1.5;" width="212" x="430.5" y="615.9531"/><ellipse cx="490.75" cy="631.9531" fill="#ADD1B2" rx="11" ry="11" style="stroke: #A80036; stroke-width: 1.0;"/><path d="M493.0938,627.625 L493.2656,627.7031 C493.4844,627.3906 493.6875,627.2969 493.9844,627.2969 C494.2813,627.2969 494.5625,627.4375 494.7188,627.7031 C494.8125,627.8594 494.8281,627.9844 494.8281,628.4219 L494.8281,629.8438 C494.8281,630.2656 494.7969,630.4531 494.6875,630.6094 C494.5156,630.8281 494.25,630.9688 493.9844,630.9688 C493.7656,630.9688 493.5313,630.8594 493.3906,630.7188 C493.25,630.5938 493.2188,630.4688 493.1563,630.0625 C493.0625,629.6563 492.8906,629.4375 492.4063,629.1563 C491.9375,628.9063 491.3281,628.75 490.75,628.75 C489.0156,628.75 487.7656,630.0625 487.7656,631.8438 L487.7656,632.9375 C487.7656,634.6406 489.0625,635.7344 491.1094,635.7344 C491.875,635.7344 492.5625,635.6094 492.9844,635.3438 C493.1719,635.25 493.1719,635.25 493.625,634.7656 C493.8125,634.5781 494.0156,634.5 494.2344,634.5 C494.7031,634.5 495.0938,634.8906 495.0938,635.3438 C495.0938,635.7344 494.7656,636.1875 494.1875,636.5938 C493.4375,637.1406 492.2813,637.4375 491.0625,637.4375 C488.1719,637.4375 486.0625,635.5469 486.0625,632.9688 L486.0625,631.8438 C486.0625,629.125 488.0625,627.0469 490.6875,627.0469 C491.5625,627.0469 492.1563,627.1875 493.0938,627.625 Z "/><text fill="#000000" font-family="sans-serif" font-size="12" lengthAdjust="spacingAndGlyphs" textLength="83" x="511.25" y="636.1074">TelnetDisplay</text><line style="stroke: #A80036; stroke-width: 1.5;" x1="431.5" x2="641.5" y1="647.9531" y2="647.9531"/><rect fill="none" height="6" style="stroke: #C82930; stroke-width: 1.0;" width="6" x="438.5" y="656.8555"/><text fill="#000000" font-family="sans-serif" font-size="11" lengthAdjust="spacingAndGlyphs" textLength="48" x="450.5" y="662.1636">int width</text><rect fill="none" height="6" style="stroke: #C82930; stroke-width: 1.0;" width="6" x="438.5" y="669.6602"/><text fill="#000000" font-family="sans-serif" font-size="11" lengthAdjust="spacingAndGlyphs" textLength="53" x="450.5" y="674.9683">int heigth</text><line style="stroke: #A80036; stroke-width: 1.5;" x1="431.5" x2="641.5" y1="681.5625" y2="681.5625"/><polygon fill="#4177AF" points="441.5,689.4648,437.5,695.4648,445.5,695.4648" style="stroke: #1963A0; stroke-width: 1.0;"/><text fill="#000000" font-family="sans-serif" font-size="11" lengthAdjust="spacingAndGlyphs" textLength="186" x="450.5" y="695.7729">TelnetDisplay(OutputStream out)</text><polygon fill="#4177AF" points="441.5,702.2695,437.5,708.2695,445.5,708.2695" style="stroke: #1963A0; stroke-width: 1.0;"/><text fill="#000000" font-family="sans-serif" font-size="11" lengthAdjust="spacingAndGlyphs" textLength="185" x="450.5" y="708.5776">void setSize(int width, int height)</text><ellipse cx="441.5" cy="719.0742" fill="#84BE84" rx="3" ry="3" style="stroke: #038048; stroke-width: 1.0;"/><text fill="#000000" font-family="sans-serif" font-size="11" lengthAdjust="spacingAndGlyphs" textLength="56" x="450.5" y="721.3823">int width()</text><ellipse cx="441.5" cy="731.8789" fill="#84BE84" rx="3" ry="3" style="stroke: #038048; stroke-width: 1.0;"/><text fill="#000000" font-family="sans-serif" font-size="11" lengthAdjust="spacingAndGlyphs" textLength="61" x="450.5" y="734.187">int height()</text><rect fill="#FEFECE" filter="url(#f1)" height="316.8984" style="stroke: #A80036; stroke-width: 1.5;" width="357" x="6" y="238.9531"/><ellipse cx="151.25" cy="254.9531" fill="#ADD1B2" rx="11" ry="11" style="stroke: #A80036; stroke-width: 1.0;"/><path d="M153.5938,250.625 L153.7656,250.7031 C153.9844,250.3906 154.1875,250.2969 154.4844,250.2969 C154.7813,250.2969 155.0625,250.4375 155.2188,250.7031 C155.3125,250.8594 155.3281,250.9844 155.3281,251.4219 L155.3281,252.8438 C155.3281,253.2656 155.2969,253.4531 155.1875,253.6094 C155.0156,253.8281 154.75,253.9688 154.4844,253.9688 C154.2656,253.9688 154.0313,253.8594 153.8906,253.7188 C153.75,253.5938 153.7188,253.4688 153.6563,253.0625 C153.5625,252.6563 153.3906,252.4375 152.9063,252.1563 C152.4375,251.9063 151.8281,251.75 151.25,251.75 C149.5156,251.75 148.2656,253.0625 148.2656,254.8438 L148.2656,255.9375 C148.2656,257.6406 149.5625,258.7344 151.6094,258.7344 C152.375,258.7344 153.0625,258.6094 153.4844,258.3438 C153.6719,258.25 153.6719,258.25 154.125,257.7656 C154.3125,257.5781 154.5156,257.5 154.7344,257.5 C155.2031,257.5 155.5938,257.8906 155.5938,258.3438 C155.5938,258.7344 155.2656,259.1875 154.6875,259.5938 C153.9375,260.1406 152.7813,260.4375 151.5625,260.4375 C148.6719,260.4375 146.5625,258.5469 146.5625,255.9688 L146.5625,254.8438 C146.5625,252.125 148.5625,250.0469 151.1875,250.0469 C152.0625,250.0469 152.6563,250.1875 153.5938,250.625 Z "/><text fill="#000000" font-family="sans-serif" font-size="12" lengthAdjust="spacingAndGlyphs" textLength="58" x="171.75" y="259.1074">Renderer</text><line style="stroke: #A80036; stroke-width: 1.5;" x1="7" x2="362" y1="270.9531" y2="270.9531"/><rect fill="none" height="6" style="stroke: #C82930; stroke-width: 1.0;" width="6" x="14" y="279.8555"/><text fill="#000000" font-family="sans-serif" font-size="11" lengthAdjust="spacingAndGlyphs" textLength="98" x="26" y="285.1636">String statusText</text><rect fill="none" height="6" style="stroke: #C82930; stroke-width: 1.0;" width="6" x="14" y="292.6602"/><text fill="#000000" font-family="sans-serif" font-size="11" lengthAdjust="spacingAndGlyphs" textLength="126" x="26" y="297.9683">String statusRightText</text><rect fill="none" height="6" style="stroke: #C82930; stroke-width: 1.0;" width="6" x="14" y="305.4648"/><text fill="#000000" font-family="sans-serif" font-size="11" lengthAdjust="spacingAndGlyphs" textLength="151" x="26" y="310.7729">Attribute[] statusAttributes</text><rect fill="none" height="6" style="stroke: #C82930; stroke-width: 1.0;" width="6" x="14" y="318.2695"/><text fill="#000000" font-family="sans-serif" font-size="11" lengthAdjust="spacingAndGlyphs" textLength="77" x="26" y="323.5776">String history</text><rect fill="none" height="6" style="stroke: #C82930; stroke-width: 1.0;" width="6" x="14" y="331.0742"/><text fill="#000000" font-family="sans-serif" font-size="11" lengthAdjust="spacingAndGlyphs" textLength="71" x="26" y="336.3823">int historyDx</text><rect fill="none" height="6" style="stroke: #C82930; stroke-width: 1.0;" width="6" x="14" y="343.8789"/><text fill="#000000" font-family="sans-serif" font-size="11" lengthAdjust="spacingAndGlyphs" textLength="154" x="26" y="349.187">Attribute[] historyAttributes</text><rect fill="none" height="6" style="stroke: #C82930; stroke-width: 1.0;" width="6" x="14" y="356.6836"/><text fill="#000000" font-family="sans-serif" font-size="11" lengthAdjust="spacingAndGlyphs" textLength="90" x="26" y="361.9917">int levelCursorX</text><rect fill="none" height="6" style="stroke: #C82930; stroke-width: 1.0;" width="6" x="14" y="369.4883"/><text fill="#000000" font-family="sans-serif" font-size="11" lengthAdjust="spacingAndGlyphs" textLength="90" x="26" y="374.7964">int levelCursorY</text><rect fill="none" height="6" style="stroke: #C82930; stroke-width: 1.0;" width="6" x="14" y="382.293"/><text fill="#000000" font-family="sans-serif" font-size="11" lengthAdjust="spacingAndGlyphs" textLength="108" x="26" y="387.6011">Attribute levelColor</text><line style="stroke: #A80036; stroke-width: 1.5;" x1="7" x2="362" y1="394.1953" y2="394.1953"/><ellipse cx="17" cy="406.0977" fill="#84BE84" rx="3" ry="3" style="stroke: #038048; stroke-width: 1.0;"/><text fill="#000000" font-family="sans-serif" font-size="11" lengthAdjust="spacingAndGlyphs" textLength="262" x="26" y="408.4058">Renderer(Sokoban game, AnsiDisplay display)</text><rect fill="#F24D5C" height="6" style="stroke: #C82930; stroke-width: 1.0;" width="6" x="14" y="415.9023"/><text fill="#000000" font-family="sans-serif" font-size="11" lengthAdjust="spacingAndGlyphs" textLength="179" x="26" y="421.2104">String limit(String in, int length)</text><rect fill="#F24D5C" height="6" style="stroke: #C82930; stroke-width: 1.0;" width="6" x="14" y="428.707"/><text fill="#000000" font-family="sans-serif" font-size="11" lengthAdjust="spacingAndGlyphs" textLength="92" x="26" y="434.0151">void drawLevel()</text><polygon fill="#4177AF" points="17,440.5117,13,446.5117,21,446.5117" style="stroke: #1963A0; stroke-width: 1.0;"/><text fill="#000000" font-family="sans-serif" font-size="11" lengthAdjust="spacingAndGlyphs" textLength="163" x="26" y="446.8198">drawLevel(List&lt;Point&gt; delta)</text><rect fill="#F24D5C" height="6" style="stroke: #C82930; stroke-width: 1.0;" width="6" x="14" y="454.3164"/><text fill="#000000" font-family="sans-serif" font-size="11" lengthAdjust="spacingAndGlyphs" textLength="331" x="26" y="459.6245">drawLevelCell(Level level, int x, int y, int baseX, int baseY)</text><rect fill="#F24D5C" height="6" style="stroke: #C82930; stroke-width: 1.0;" width="6" x="14" y="467.1211"/><text fill="#000000" font-family="sans-serif" font-size="11" lengthAdjust="spacingAndGlyphs" textLength="100" x="26" y="472.4292">void drawStatus()</text><rect fill="#F24D5C" height="6" style="stroke: #C82930; stroke-width: 1.0;" width="6" x="14" y="479.9258"/><text fill="#000000" font-family="sans-serif" font-size="11" lengthAdjust="spacingAndGlyphs" textLength="103" x="26" y="485.2339">void drawHistory()</text><polygon fill="#4177AF" points="17,491.7305,13,497.7305,21,497.7305" style="stroke: #1963A0; stroke-width: 1.0;"/><text fill="#000000" font-family="sans-serif" font-size="11" lengthAdjust="spacingAndGlyphs" textLength="264" x="26" y="498.0386">void setStatusAttribtues(Attribute... attribtues)</text><polygon fill="#4177AF" points="17,504.5352,13,510.5352,21,510.5352" style="stroke: #1963A0; stroke-width: 1.0;"/><text fill="#000000" font-family="sans-serif" font-size="11" lengthAdjust="spacingAndGlyphs" textLength="149" x="26" y="510.8433">void setStatus(String text)</text><polygon fill="#4177AF" points="17,517.3398,13,523.3398,21,523.3398" style="stroke: #1963A0; stroke-width: 1.0;"/><text fill="#000000" font-family="sans-serif" font-size="11" lengthAdjust="spacingAndGlyphs" textLength="177" x="26" y="523.6479">void setStatusRight(String text)</text><polygon fill="#4177AF" points="17,530.1445,13,536.1445,21,536.1445" style="stroke: #1963A0; stroke-width: 1.0;"/><text fill="#000000" font-family="sans-serif" font-size="11" lengthAdjust="spacingAndGlyphs" textLength="223" x="26" y="536.4526">void setHistory(String text, int position)</text><polygon fill="#4177AF" points="17,542.9492,13,548.9492,21,548.9492" style="stroke: #1963A0; stroke-width: 1.0;"/><text fill="#000000" font-family="sans-serif" font-size="11" lengthAdjust="spacingAndGlyphs" textLength="61" x="26" y="549.2573">void sync()</text><rect fill="#FEFECE" filter="url(#f1)" height="48" style="stroke: #A80036; stroke-width: 1.5;" width="87" x="225" y="654.4531"/><ellipse cx="240" cy="670.4531" fill="#ADD1B2" rx="11" ry="11" style="stroke: #A80036; stroke-width: 1.0;"/><path d="M242.3438,666.125 L242.5156,666.2031 C242.7344,665.8906 242.9375,665.7969 243.2344,665.7969 C243.5313,665.7969 243.8125,665.9375 243.9688,666.2031 C244.0625,666.3594 244.0781,666.4844 244.0781,666.9219 L244.0781,668.3438 C244.0781,668.7656 244.0469,668.9531 243.9375,669.1094 C243.7656,669.3281 243.5,669.4688 243.2344,669.4688 C243.0156,669.4688 242.7813,669.3594 242.6406,669.2188 C242.5,669.0938 242.4688,668.9688 242.4063,668.5625 C242.3125,668.1563 242.1406,667.9375 241.6563,667.6563 C241.1875,667.4063 240.5781,667.25 240,667.25 C238.2656,667.25 237.0156,668.5625 237.0156,670.3438 L237.0156,671.4375 C237.0156,673.1406 238.3125,674.2344 240.3594,674.2344 C241.125,674.2344 241.8125,674.1094 242.2344,673.8438 C242.4219,673.75 242.4219,673.75 242.875,673.2656 C243.0625,673.0781 243.2656,673 243.4844,673 C243.9531,673 244.3438,673.3906 244.3438,673.8438 C244.3438,674.2344 244.0156,674.6875 243.4375,675.0938 C242.6875,675.6406 241.5313,675.9375 240.3125,675.9375 C237.4219,675.9375 235.3125,674.0469 235.3125,671.4688 L235.3125,670.3438 C235.3125,667.625 237.3125,665.5469 239.9375,665.5469 C240.8125,665.5469 241.4063,665.6875 242.3438,666.125 Z "/><text fill="#000000" font-family="sans-serif" font-size="12" lengthAdjust="spacingAndGlyphs" textLength="55" x="254" y="674.6074">Sokoban</text><line style="stroke: #A80036; stroke-width: 1.5;" x1="226" x2="311" y1="686.4531" y2="686.4531"/><line style="stroke: #A80036; stroke-width: 1.5;" x1="226" x2="311" y1="694.4531" y2="694.4531"/><path d="M536.5,199.4501 C536.5,218.2331 536.5,238.3171 536.5,258.2141 " fill="none" style="stroke: #A80036; stroke-width: 1.0; stroke-dasharray: 7.0,7.0;"/><polygon fill="none" points="529.5,199.2651,536.5,179.2651,543.5,199.2651,529.5,199.2651" style="stroke: #A80036; stroke-width: 1.0;"/><path d="M536.5,556.8851 C536.5,577.7921 536.5,598.1201 536.5,615.9451 " fill="none" style="stroke: #A80036; stroke-width: 1.0;"/><polygon fill="none" points="529.5,556.7271,536.5,536.7271,543.5,556.7271,529.5,556.7271" style="stroke: #A80036; stroke-width: 1.0;"/><path d="M363.25,397.4531 C373.239,397.4531 383.228,397.4531 393.218,397.4531 " fill="none" style="stroke: #A80036; stroke-width: 1.0;"/><polygon fill="#A80036" points="398.441,397.4531,389.441,393.4531,393.441,397.4531,389.441,401.4531,398.441,397.4531" style="stroke: #A80036; stroke-width: 1.0;"/><text fill="#000000" font-family="sans-serif" font-size="13" lengthAdjust="spacingAndGlyphs" textLength="8" x="370.9598" y="394.2086">1</text><text fill="#000000" font-family="sans-serif" font-size="13" lengthAdjust="spacingAndGlyphs" textLength="8" x="382.6721" y="394.1003">1</text><path d="M400.093,540.4591 C357.594,584.7021 315.418,628.6091 290.672,654.371 " fill="none" style="stroke: #A80036; stroke-width: 1.0;"/><polygon fill="#A80036" points="403.678,536.7271,394.5589,540.4477,400.2146,540.3334,400.3289,545.9891,403.678,536.7271" style="stroke: #A80036; stroke-width: 1.0;"/><text fill="#000000" font-family="sans-serif" font-size="13" lengthAdjust="spacingAndGlyphs" textLength="8" x="388.1955" y="556.8111">1</text><text fill="#000000" font-family="sans-serif" font-size="13" lengthAdjust="spacingAndGlyphs" textLength="8" x="287.3286" y="643.3621">1</text><path d="M232.023,556.2971 C243.605,594.7651 254.617,631.3401 261.452,654.0447 " fill="none" style="stroke: #A80036; stroke-width: 1.0;"/><text fill="#000000" font-family="sans-serif" font-size="13" lengthAdjust="spacingAndGlyphs" textLength="8" x="225.9951" y="575.9068">1</text><text fill="#000000" font-family="sans-serif" font-size="13" lengthAdjust="spacingAndGlyphs" textLength="8" x="250.7591" y="643.3506">1</text></g></svg>