<?xml version="1.0" encoding="UTF-8" standalone="yes"?><svg xmlns="http://www.w3.org/2000/svg" xmlns:xlink="http://www.w3.org/1999/xlink" height="456px" style="width:723px;height:456px;" version="1.1" viewBox="0 0 723 456" width="723px"><defs><filter height="300%" id="f1" width="300%" x="-1" y="-1"><feGaussianBlur result="blurOut" stdDeviation="2.0"/><feColorMatrix in="blurOut" result="blurOut2" type="matrix" values="0 0 0 0 0 0 0 0 0 0 0 0 0 0 0 0 0 0 .4 0"/><feOffset dx="4.0" dy="4.0" in="blurOut2" result="blurOut3"/><feBlend in="SourceGraphic" in2="blurOut3" mode="normal"/></filter></defs><g><text fill="#000000" font-family="sans-serif" font-size="18" lengthAdjust="spacingAndGlyphs" textLength="257" x="238" y="16.708">Diagramme de classes - Keys</text><rect fill="#FEFECE" filter="url(#f1)" height="48" style="stroke: #A80036; stroke-width: 1.5;" width="87" x="79.5" y="347.9531"/><ellipse cx="94.5" cy="363.9531" fill="#ADD1B2" rx="11" ry="11" style="stroke: #A80036; stroke-width: 1.0;"/><path d="M96.8438,359.625 L97.0156,359.7031 C97.2344,359.3906 97.4375,359.2969 97.7344,359.2969 C98.0313,359.2969 98.3125,359.4375 98.4688,359.7031 C98.5625,359.8594 98.5781,359.9844 98.5781,360.4219 L98.5781,361.8438 C98.5781,362.2656 98.5469,362.4531 98.4375,362.6094 C98.2656,362.8281 98,362.9688 97.7344,362.9688 C97.5156,362.9688 97.2813,362.8594 97.1406,362.7188 C97,362.5938 96.9688,362.4688 96.9063,362.0625 C96.8125,361.6563 96.6406,361.4375 96.1563,361.1563 C95.6875,360.9063 95.0781,360.75 94.5,360.75 C92.7656,360.75 91.5156,362.0625 91.5156,363.8438 L91.5156,364.9375 C91.5156,366.6406 92.8125,367.7344 94.8594,367.7344 C95.625,367.7344 96.3125,367.6094 96.7344,367.3438 C96.9219,367.25 96.9219,367.25 97.375,366.7656 C97.5625,366.5781 97.7656,366.5 97.9844,366.5 C98.4531,366.5 98.8438,366.8906 98.8438,367.3438 C98.8438,367.7344 98.5156,368.1875 97.9375,368.5938 C97.1875,369.1406 96.0313,369.4375 94.8125,369.4375 C91.9219,369.4375 89.8125,367.5469 89.8125,364.9688 L89.8125,363.8438 C89.8125,361.125 91.8125,359.0469 94.4375,359.0469 C95.3125,359.0469 95.9063,359.1875 96.8438,359.625 Z "/><text fill="#000000" font-family="sans-serif" font-size="12" lengthAdjust="spacingAndGlyphs" textLength="55" x="108.5" y="368.1074">Sokoban</text><line style="stroke: #A80036; stroke-width: 1.5;" x1="80.5" x2="165.5" y1="379.9531" y2="379.9531"/><line style="stroke: #A80036; stroke-width: 1.5;" x1="80.5" x2="165.5" y1="387.9531" y2="387.9531"/><rect fill="#FEFECE" filter="url(#f1)" height="150.4375" style="stroke: #A80036; stroke-width: 1.5;" width="445" x="201.5" y="296.9531"/><ellipse cx="382.75" cy="312.9531" fill="#ADD1B2" rx="11" ry="11" style="stroke: #A80036; stroke-width: 1.0;"/><path d="M385.0938,308.625 L385.2656,308.7031 C385.4844,308.3906 385.6875,308.2969 385.9844,308.2969 C386.2813,308.2969 386.5625,308.4375 386.7188,308.7031 C386.8125,308.8594 386.8281,308.9844 386.8281,309.4219 L386.8281,310.8438 C386.8281,311.2656 386.7969,311.4531 386.6875,311.6094 C386.5156,311.8281 386.25,311.9688 385.9844,311.9688 C385.7656,311.9688 385.5313,311.8594 385.3906,311.7188 C385.25,311.5938 385.2188,311.4688 385.1563,311.0625 C385.0625,310.6563 384.8906,310.4375 384.4063,310.1563 C383.9375,309.9063 383.3281,309.75 382.75,309.75 C381.0156,309.75 379.7656,311.0625 379.7656,312.8438 L379.7656,313.9375 C379.7656,315.6406 381.0625,316.7344 383.1094,316.7344 C383.875,316.7344 384.5625,316.6094 384.9844,316.3438 C385.1719,316.25 385.1719,316.25 385.625,315.7656 C385.8125,315.5781 386.0156,315.5 386.2344,315.5 C386.7031,315.5 387.0938,315.8906 387.0938,316.3438 C387.0938,316.7344 386.7656,317.1875 386.1875,317.5938 C385.4375,318.1406 384.2813,318.4375 383.0625,318.4375 C380.1719,318.4375 378.0625,316.5469 378.0625,313.9688 L378.0625,312.8438 C378.0625,310.125 380.0625,308.0469 382.6875,308.0469 C383.5625,308.0469 384.1563,308.1875 385.0938,308.625 Z "/><text fill="#000000" font-family="sans-serif" font-size="12" lengthAdjust="spacingAndGlyphs" textLength="74" x="403.25" y="317.1074">KeyBindings</text><line style="stroke: #A80036; stroke-width: 1.5;" x1="202.5" x2="645.5" y1="328.9531" y2="328.9531"/><rect fill="none" height="6" style="stroke: #C82930; stroke-width: 1.0;" width="6" x="209.5" y="337.8555"/><text fill="#000000" font-family="sans-serif" font-size="11" lengthAdjust="spacingAndGlyphs" textLength="212" x="221.5" y="343.1636">Map&lt;KeyPress, Command&gt; bindings</text><rect fill="none" height="6" style="stroke: #C82930; stroke-width: 1.0;" width="6" x="209.5" y="350.6602"/><text fill="#000000" font-family="sans-serif" font-size="11" lengthAdjust="spacingAndGlyphs" textLength="326" x="221.5" y="355.9683">Function&lt;KeyPress, Command&gt; defaultCommandFactory</text><line style="stroke: #A80036; stroke-width: 1.5;" x1="202.5" x2="645.5" y1="362.5625" y2="362.5625"/><ellipse cx="212.5" cy="374.4648" fill="#84BE84" rx="3" ry="3" style="stroke: #038048; stroke-width: 1.0;"/><text fill="#000000" font-family="sans-serif" font-size="11" lengthAdjust="spacingAndGlyphs" textLength="419" x="221.5" y="376.7729">void setDefaultCommandFactory(Function&lt;KeyPress, Command&gt; factory)</text><ellipse cx="212.5" cy="387.2695" fill="#84BE84" rx="3" ry="3" style="stroke: #038048; stroke-width: 1.0;"/><text fill="#000000" font-family="sans-serif" font-size="11" lengthAdjust="spacingAndGlyphs" textLength="269" x="221.5" y="389.5776">void setDefaultCommand(Command command)</text><ellipse cx="212.5" cy="400.0742" fill="#84BE84" rx="3" ry="3" style="stroke: #038048; stroke-width: 1.0;"/><text fill="#000000" font-family="sans-serif" font-size="11" lengthAdjust="spacingAndGlyphs" textLength="322" x="221.5" y="402.3823">Optional&lt;Command&gt; set(Key key, Command command)</text><ellipse cx="212.5" cy="412.8789" fill="#84BE84" rx="3" ry="3" style="stroke: #038048; stroke-width: 1.0;"/><text fill="#000000" font-family="sans-serif" font-size="11" lengthAdjust="spacingAndGlyphs" textLength="355" x="221.5" y="415.187">Optional&lt;Command&gt; set(KeyPress key, Command command)</text><ellipse cx="212.5" cy="425.6836" fill="#84BE84" rx="3" ry="3" style="stroke: #038048; stroke-width: 1.0;"/><text fill="#000000" font-family="sans-serif" font-size="11" lengthAdjust="spacingAndGlyphs" textLength="229" x="221.5" y="427.9917">Optional&lt;Command&gt; get(KeyPress key)</text><ellipse cx="212.5" cy="438.4883" fill="#84BE84" rx="3" ry="3" style="stroke: #038048; stroke-width: 1.0;"/><text fill="#000000" font-family="sans-serif" font-size="11" lengthAdjust="spacingAndGlyphs" textLength="164" x="221.5" y="440.7964">Set&lt;KeyPress&gt; boundKeys()</text><rect fill="#FEFECE" filter="url(#f1)" height="60.8047" style="stroke: #A80036; stroke-width: 1.5;" width="234" x="6" y="124.9531"/><ellipse cx="90.75" cy="140.9531" fill="#ADD1B2" rx="11" ry="11" style="stroke: #A80036; stroke-width: 1.0;"/><path d="M93.0938,136.625 L93.2656,136.7031 C93.4844,136.3906 93.6875,136.2969 93.9844,136.2969 C94.2813,136.2969 94.5625,136.4375 94.7188,136.7031 C94.8125,136.8594 94.8281,136.9844 94.8281,137.4219 L94.8281,138.8438 C94.8281,139.2656 94.7969,139.4531 94.6875,139.6094 C94.5156,139.8281 94.25,139.9688 93.9844,139.9688 C93.7656,139.9688 93.5313,139.8594 93.3906,139.7188 C93.25,139.5938 93.2188,139.4688 93.1563,139.0625 C93.0625,138.6563 92.8906,138.4375 92.4063,138.1563 C91.9375,137.9063 91.3281,137.75 90.75,137.75 C89.0156,137.75 87.7656,139.0625 87.7656,140.8438 L87.7656,141.9375 C87.7656,143.6406 89.0625,144.7344 91.1094,144.7344 C91.875,144.7344 92.5625,144.6094 92.9844,144.3438 C93.1719,144.25 93.1719,144.25 93.625,143.7656 C93.8125,143.5781 94.0156,143.5 94.2344,143.5 C94.7031,143.5 95.0938,143.8906 95.0938,144.3438 C95.0938,144.7344 94.7656,145.1875 94.1875,145.5938 C93.4375,146.1406 92.2813,146.4375 91.0625,146.4375 C88.1719,146.4375 86.0625,144.5469 86.0625,141.9688 L86.0625,140.8438 C86.0625,138.125 88.0625,136.0469 90.6875,136.0469 C91.5625,136.0469 92.1563,136.1875 93.0938,136.625 Z "/><text fill="#000000" font-family="sans-serif" font-size="12" lengthAdjust="spacingAndGlyphs" textLength="56" x="111.25" y="145.1074">KeyPress</text><line style="stroke: #A80036; stroke-width: 1.5;" x1="7" x2="239" y1="156.9531" y2="156.9531"/><line style="stroke: #A80036; stroke-width: 1.5;" x1="7" x2="239" y1="164.9531" y2="164.9531"/><ellipse cx="17" cy="176.8555" fill="#84BE84" rx="3" ry="3" style="stroke: #038048; stroke-width: 1.0;"/><text fill="#000000" font-family="sans-serif" font-size="11" lengthAdjust="spacingAndGlyphs" textLength="208" x="26" y="179.1636">KeyPress(Key key, Modifier modifier)</text><rect fill="#FEFECE" filter="url(#f1)" height="163.2422" style="stroke: #A80036; stroke-width: 1.5;" width="255" x="459.5" y="73.9531"/><ellipse cx="572.25" cy="89.9531" fill="#EB937F" rx="11" ry="11" style="stroke: #A80036; stroke-width: 1.0;"/><path d="M570.5469,90.8281 L570.5469,93.25 L574.9063,93.25 L574.9063,92.375 C574.9063,91.8906 574.9375,91.75 575.0469,91.5938 C575.2188,91.3438 575.4844,91.2344 575.75,91.2344 C576.0313,91.2344 576.3125,91.3906 576.4844,91.6406 C576.5625,91.7969 576.5938,91.9375 576.5938,92.375 L576.5938,94.9531 L568.5938,94.9531 C568.2031,94.9531 567.9688,94.9063 567.8281,94.7813 C567.6094,94.625 567.4688,94.375 567.4688,94.1094 C567.4688,93.8125 567.625,93.5469 567.875,93.375 C568.0313,93.2656 568.1875,93.25 568.5938,93.25 L568.8438,93.25 L568.8438,86.7344 L568.5938,86.7344 C568.1719,86.7344 567.9844,86.7031 567.8281,86.5938 C567.6094,86.4219 567.4688,86.1719 567.4688,85.8906 C567.4688,85.6094 567.625,85.3125 567.875,85.1563 C568.0313,85.0625 568.1563,85.0469 568.5938,85.0469 L576.2188,85.0469 L576.2188,87.5938 C576.2188,88.0625 576.1875,88.2031 576.0781,88.375 C575.9063,88.5938 575.6406,88.7344 575.375,88.7344 C575.0938,88.7344 574.8125,88.5781 574.6406,88.3281 C574.5625,88.1719 574.5313,88 574.5313,87.5938 L574.5313,86.7344 L570.5469,86.7344 L570.5469,89.1406 L572,89.1406 L572,89.0156 C572,88.5625 572.0313,88.4063 572.1406,88.2344 C572.3125,88.0156 572.5781,87.875 572.8281,87.875 C573.2813,87.875 573.5938,88.1875 573.6563,88.6563 C573.6719,88.8125 573.6719,88.8594 573.6719,89.0156 L573.6719,90.9375 C573.6719,91.3906 573.6406,91.5469 573.5156,91.7031 C573.3594,91.9219 573.0938,92.0625 572.8438,92.0625 C572.5469,92.0625 572.2656,91.9063 572.1094,91.6563 C572.0313,91.5 572,91.3438 572,90.9375 L572,90.8281 Z "/><text fill="#000000" font-family="sans-serif" font-size="12" lengthAdjust="spacingAndGlyphs" textLength="21" x="592.75" y="94.1074">Key</text><line style="stroke: #A80036; stroke-width: 1.5;" x1="460.5" x2="713.5" y1="105.9531" y2="105.9531"/><text fill="#000000" font-family="sans-serif" font-size="11" lengthAdjust="spacingAndGlyphs" textLength="7" x="465.5" y="120.1636">A</text><text fill="#000000" font-family="sans-serif" font-size="11" lengthAdjust="spacingAndGlyphs" textLength="8" x="465.5" y="132.9683">B</text><text fill="#000000" font-family="sans-serif" font-size="11" lengthAdjust="spacingAndGlyphs" textLength="8" x="465.5" y="145.7729">C</text><text fill="#000000" font-family="sans-serif" font-size="11" lengthAdjust="spacingAndGlyphs" textLength="20" x="465.5" y="158.5776">[...]</text><text fill="#000000" font-family="sans-serif" font-size="11" lengthAdjust="spacingAndGlyphs" textLength="22" x="465.5" y="171.3823">TAB</text><text fill="#000000" font-family="sans-serif" font-size="11" lengthAdjust="spacingAndGlyphs" textLength="37" x="465.5" y="184.187">SPACE</text><text fill="#000000" font-family="sans-serif" font-size="11" lengthAdjust="spacingAndGlyphs" textLength="20" x="465.5" y="196.9917">[...]</text><line style="stroke: #A80036; stroke-width: 1.5;" x1="460.5" x2="713.5" y1="203.5859" y2="203.5859"/><ellipse cx="470.5" cy="215.4883" fill="#84BE84" rx="3" ry="3" style="stroke: #038048; stroke-width: 1.0;"/><text fill="#000000" font-family="sans-serif" font-size="11" lengthAdjust="spacingAndGlyphs" text-decoration="underline" textLength="122" x="479.5" y="217.7964">Key forCode(int code)</text><line style="stroke: #000000; stroke-width: 1.0;" x1="479.5" x2="601.5" y1="219.7964" y2="219.7964"/><ellipse cx="470.5" cy="228.293" fill="#84BE84" rx="3" ry="3" style="stroke: #038048; stroke-width: 1.0;"/><text fill="#000000" font-family="sans-serif" font-size="11" lengthAdjust="spacingAndGlyphs" textLength="229" x="479.5" y="230.6011">KeyPress withModifier(Modifier modifier)</text><rect fill="#FEFECE" filter="url(#f1)" height="112.0234" style="stroke: #A80036; stroke-width: 1.5;" width="149" x="275.5" y="99.4531"/><ellipse cx="321.25" cy="115.4531" fill="#EB937F" rx="11" ry="11" style="stroke: #A80036; stroke-width: 1.0;"/><path d="M319.5469,116.3281 L319.5469,118.75 L323.9063,118.75 L323.9063,117.875 C323.9063,117.3906 323.9375,117.25 324.0469,117.0938 C324.2188,116.8438 324.4844,116.7344 324.75,116.7344 C325.0313,116.7344 325.3125,116.8906 325.4844,117.1406 C325.5625,117.2969 325.5938,117.4375 325.5938,117.875 L325.5938,120.4531 L317.5938,120.4531 C317.2031,120.4531 316.9688,120.4063 316.8281,120.2813 C316.6094,120.125 316.4688,119.875 316.4688,119.6094 C316.4688,119.3125 316.625,119.0469 316.875,118.875 C317.0313,118.7656 317.1875,118.75 317.5938,118.75 L317.8438,118.75 L317.8438,112.2344 L317.5938,112.2344 C317.1719,112.2344 316.9844,112.2031 316.8281,112.0938 C316.6094,111.9219 316.4688,111.6719 316.4688,111.3906 C316.4688,111.1094 316.625,110.8125 316.875,110.6563 C317.0313,110.5625 317.1563,110.5469 317.5938,110.5469 L325.2188,110.5469 L325.2188,113.0938 C325.2188,113.5625 325.1875,113.7031 325.0781,113.875 C324.9063,114.0938 324.6406,114.2344 324.375,114.2344 C324.0938,114.2344 323.8125,114.0781 323.6406,113.8281 C323.5625,113.6719 323.5313,113.5 323.5313,113.0938 L323.5313,112.2344 L319.5469,112.2344 L319.5469,114.6406 L321,114.6406 L321,114.5156 C321,114.0625 321.0313,113.9063 321.1406,113.7344 C321.3125,113.5156 321.5781,113.375 321.8281,113.375 C322.2813,113.375 322.5938,113.6875 322.6563,114.1563 C322.6719,114.3125 322.6719,114.3594 322.6719,114.5156 L322.6719,116.4375 C322.6719,116.8906 322.6406,117.0469 322.5156,117.2031 C322.3594,117.4219 322.0938,117.5625 321.8438,117.5625 C321.5469,117.5625 321.2656,117.4063 321.1094,117.1563 C321.0313,117 321,116.8438 321,116.4375 L321,116.3281 Z "/><text fill="#000000" font-family="sans-serif" font-size="12" lengthAdjust="spacingAndGlyphs" textLength="49" x="341.75" y="119.6074">Modifier</text><line style="stroke: #A80036; stroke-width: 1.5;" x1="276.5" x2="423.5" y1="131.4531" y2="131.4531"/><text fill="#000000" font-family="sans-serif" font-size="11" lengthAdjust="spacingAndGlyphs" textLength="32" x="281.5" y="145.6636">NONE</text><text fill="#000000" font-family="sans-serif" font-size="11" lengthAdjust="spacingAndGlyphs" textLength="32" x="281.5" y="158.4683">SHIFT</text><text fill="#000000" font-family="sans-serif" font-size="11" lengthAdjust="spacingAndGlyphs" textLength="28" x="281.5" y="171.2729">CTRL</text><line style="stroke: #A80036; stroke-width: 1.5;" x1="276.5" x2="423.5" y1="177.8672" y2="177.8672"/><ellipse cx="286.5" cy="189.7695" fill="#84BE84" rx="3" ry="3" style="stroke: #038048; stroke-width: 1.0;"/><text fill="#000000" font-family="sans-serif" font-size="11" lengthAdjust="spacingAndGlyphs" textLength="123" x="295.5" y="192.0776">Modifier(String prefix)</text><ellipse cx="286.5" cy="202.5742" fill="#84BE84" rx="3" ry="3" style="stroke: #038048; stroke-width: 1.0;"/><text fill="#000000" font-family="sans-serif" font-size="11" lengthAdjust="spacingAndGlyphs" textLength="78" x="295.5" y="204.8823">String prefix()</text><path d="M166.504,371.9531 C176.425,371.9531 186.347,371.9531 196.269,371.9531 " fill="none" style="stroke: #A80036; stroke-width: 1.0;"/><polygon fill="#A80036" points="201.457,371.9531,192.457,367.9531,196.457,371.9531,192.457,375.9531,201.457,371.9531" style="stroke: #A80036; stroke-width: 1.0;"/><text fill="#000000" font-family="sans-serif" font-size="13" lengthAdjust="spacingAndGlyphs" textLength="8" x="174.3719" y="367.7888">1</text><text fill="#000000" font-family="sans-serif" font-size="13" lengthAdjust="spacingAndGlyphs" textLength="7" x="186.3336" y="368.745">*</text><path d="M123,191.5111 C123,235.6961 123,310.3951 123,347.947 " fill="none" style="stroke: #A80036; stroke-width: 1.0;"/><polygon fill="#A80036" points="123,186.2781,119,195.2781,123,191.2781,127,195.2781,123,186.2781" style="stroke: #A80036; stroke-width: 1.0;"/><text fill="#000000" font-family="sans-serif" font-size="13" lengthAdjust="spacingAndGlyphs" textLength="7" x="115.3109" y="205.9226">*</text><text fill="#000000" font-family="sans-serif" font-size="13" lengthAdjust="spacingAndGlyphs" textLength="8" x="113.975" y="336.9576">1</text><path d="M162.228,115.7961 C190.87,89.8071 232.133,58.1161 275.5,43.9531 C338.45,23.3951 361.249,24.3401 424.5,43.9531 C446.232,50.6921 467.638,61.4531 487.422,73.6931 " fill="none" style="stroke: #A80036; stroke-width: 1.0;"/><polygon fill="#A80036" points="152.64,124.7131,159.7576,123.5559,161.427,116.5407,154.3093,117.6979,152.64,124.7131" style="stroke: #A80036; stroke-width: 1.0;"/><path d="M253.254,155.4531 C260.592,155.4531 267.929,155.4531 275.266,155.4531 " fill="none" style="stroke: #A80036; stroke-width: 1.0;"/><polygon fill="#A80036" points="240.047,155.4531,246.047,159.4531,252.047,155.4531,246.047,151.4531,240.047,155.4531" style="stroke: #A80036; stroke-width: 1.0;"/></g></svg>