<?xml version="1.0" encoding="UTF-8" standalone="yes"?><svg xmlns="http://www.w3.org/2000/svg" xmlns:xlink="http://www.w3.org/1999/xlink" height="953px" style="width:989px;height:953px;" version="1.1" viewBox="0 0 989 953" width="989px"><defs><filter height="300%" id="f1" width="300%" x="-1" y="-1"><feGaussianBlur result="blurOut" stdDeviation="2.0"/><feColorMatrix in="blurOut" result="blurOut2" type="matrix" values="0 0 0 0 0 0 0 0 0 0 0 0 0 0 0 0 0 0 .4 0"/><feOffset dx="4.0" dy="4.0" in="blurOut2" result="blurOut3"/><feBlend in="SourceGraphic" in2="blurOut3" mode="normal"/></filter></defs><g><text fill="#000000" font-family="sans-serif" font-size="18" lengthAdjust="spacingAndGlyphs" textLength="290" x="354" y="16.708">Diagramme de classes - Sokoban</text><rect fill="#FEFECE" filter="url(#f1)" height="73.6094" style="stroke: #A80036; stroke-width: 1.5;" width="215" x="472.5" y="47.9531"/><ellipse cx="557.75" cy="63.9531" fill="#B4A7E5" rx="11" ry="11" style="stroke: #A80036; stroke-width: 1.0;"/><path d="M558.7031,60.7344 L558.7031,67.25 L560.4219,67.25 C560.875,67.25 561.0156,67.2813 561.1875,67.4063 C561.4219,67.5781 561.5313,67.8281 561.5313,68.1094 C561.5313,68.6719 561.1719,68.9531 560.4219,68.9531 L555.2813,68.9531 C554.875,68.9531 554.6719,68.9063 554.5156,68.7813 C554.2969,68.625 554.1563,68.3594 554.1563,68.1094 C554.1563,67.8125 554.3125,67.5313 554.5625,67.375 C554.7188,67.2656 554.8438,67.25 555.2813,67.25 L557,67.25 L557,60.7344 L555.2813,60.7344 C554.8594,60.7344 554.6719,60.7031 554.5156,60.5938 C554.2969,60.4219 554.1563,60.1719 554.1563,59.8906 C554.1563,59.6094 554.3125,59.3125 554.5625,59.1563 C554.7188,59.0625 554.8438,59.0469 555.2813,59.0469 L560.4219,59.0469 C560.875,59.0469 561.0156,59.0781 561.1875,59.1875 C561.4219,59.3594 561.5313,59.625 561.5313,59.8906 C561.5313,60.1875 561.3906,60.4688 561.125,60.625 C561,60.7031 560.8125,60.7344 560.4219,60.7344 Z "/><text fill="#000000" font-family="sans-serif" font-size="12" font-style="italic" lengthAdjust="spacingAndGlyphs" textLength="36" x="578.25" y="68.1074">Game</text><line style="stroke: #A80036; stroke-width: 1.5;" x1="473.5" x2="686.5" y1="79.9531" y2="79.9531"/><line style="stroke: #A80036; stroke-width: 1.5;" x1="473.5" x2="686.5" y1="87.9531" y2="87.9531"/><polygon fill="#4177AF" points="483.5,95.8555,479.5,101.8555,487.5,101.8555" style="stroke: #1963A0; stroke-width: 1.0;"/><text fill="#000000" font-family="sans-serif" font-size="11" font-style="italic" lengthAdjust="spacingAndGlyphs" textLength="189" x="492.5" y="102.1636">void keyPressed(KeyPress event)</text><polygon fill="#4177AF" points="483.5,108.6602,479.5,114.6602,487.5,114.6602" style="stroke: #1963A0; stroke-width: 1.0;"/><text fill="#000000" font-family="sans-serif" font-size="11" font-style="italic" lengthAdjust="spacingAndGlyphs" textLength="149" x="492.5" y="114.9683">void displaySizeChanged()</text><rect fill="#FEFECE" filter="url(#f1)" height="240.0703" style="stroke: #A80036; stroke-width: 1.5;" width="481" x="339.5" y="246.9531"/><ellipse cx="548.25" cy="262.9531" fill="#ADD1B2" rx="11" ry="11" style="stroke: #A80036; stroke-width: 1.0;"/><path d="M550.5938,258.625 L550.7656,258.7031 C550.9844,258.3906 551.1875,258.2969 551.4844,258.2969 C551.7813,258.2969 552.0625,258.4375 552.2188,258.7031 C552.3125,258.8594 552.3281,258.9844 552.3281,259.4219 L552.3281,260.8438 C552.3281,261.2656 552.2969,261.4531 552.1875,261.6094 C552.0156,261.8281 551.75,261.9688 551.4844,261.9688 C551.2656,261.9688 551.0313,261.8594 550.8906,261.7188 C550.75,261.5938 550.7188,261.4688 550.6563,261.0625 C550.5625,260.6563 550.3906,260.4375 549.9063,260.1563 C549.4375,259.9063 548.8281,259.75 548.25,259.75 C546.5156,259.75 545.2656,261.0625 545.2656,262.8438 L545.2656,263.9375 C545.2656,265.6406 546.5625,266.7344 548.6094,266.7344 C549.375,266.7344 550.0625,266.6094 550.4844,266.3438 C550.6719,266.25 550.6719,266.25 551.125,265.7656 C551.3125,265.5781 551.5156,265.5 551.7344,265.5 C552.2031,265.5 552.5938,265.8906 552.5938,266.3438 C552.5938,266.7344 552.2656,267.1875 551.6875,267.5938 C550.9375,268.1406 549.7813,268.4375 548.5625,268.4375 C545.6719,268.4375 543.5625,266.5469 543.5625,263.9688 L543.5625,262.8438 C543.5625,260.125 545.5625,258.0469 548.1875,258.0469 C549.0625,258.0469 549.6563,258.1875 550.5938,258.625 Z "/><text fill="#000000" font-family="sans-serif" font-size="12" lengthAdjust="spacingAndGlyphs" textLength="55" x="568.75" y="267.1074">Sokoban</text><line style="stroke: #A80036; stroke-width: 1.5;" x1="340.5" x2="819.5" y1="278.9531" y2="278.9531"/><rect fill="none" height="6" style="stroke: #C82930; stroke-width: 1.0;" width="6" x="347.5" y="287.8555"/><text fill="#000000" font-family="sans-serif" font-size="11" lengthAdjust="spacingAndGlyphs" text-decoration="underline" textLength="131" x="359.5" y="293.1636">int DISPLAY_MIN_WIDTH</text><line style="stroke: #000000; stroke-width: 1.0;" x1="359.5" x2="490.5" y1="295.1636" y2="295.1636"/><rect fill="none" height="6" style="stroke: #C82930; stroke-width: 1.0;" width="6" x="347.5" y="300.6602"/><text fill="#000000" font-family="sans-serif" font-size="11" lengthAdjust="spacingAndGlyphs" text-decoration="underline" textLength="138" x="359.5" y="305.9683">int DISPLAY_MIN_HEIGHT</text><line style="stroke: #000000; stroke-width: 1.0;" x1="359.5" x2="497.5" y1="307.9683" y2="307.9683"/><rect fill="none" height="6" style="stroke: #C82930; stroke-width: 1.0;" width="6" x="347.5" y="313.4648"/><text fill="#000000" font-family="sans-serif" font-size="11" lengthAdjust="spacingAndGlyphs" textLength="74" x="359.5" y="318.7729">int levelIndex</text><line style="stroke: #A80036; stroke-width: 1.5;" x1="340.5" x2="819.5" y1="325.3672" y2="325.3672"/><ellipse cx="350.5" cy="337.2695" fill="#84BE84" rx="3" ry="3" style="stroke: #038048; stroke-width: 1.0;"/><text fill="#000000" font-family="sans-serif" font-size="11" lengthAdjust="spacingAndGlyphs" textLength="166" x="359.5" y="339.5776">Sokoban(AnsiDisplay display)</text><rect fill="#F24D5C" height="6" style="stroke: #C82930; stroke-width: 1.0;" width="6" x="347.5" y="347.0742"/><text fill="#000000" font-family="sans-serif" font-size="11" lengthAdjust="spacingAndGlyphs" textLength="146" x="359.5" y="352.3823">void selectLevel(int index)</text><rect fill="#F24D5C" height="6" style="stroke: #C82930; stroke-width: 1.0;" width="6" x="347.5" y="359.8789"/><text fill="#000000" font-family="sans-serif" font-size="11" lengthAdjust="spacingAndGlyphs" textLength="455" x="359.5" y="365.187">Command performMovement(String name, Function&lt;Level, List&lt;Point&gt;&gt; move)</text><rect fill="#F24D5C" height="6" style="stroke: #C82930; stroke-width: 1.0;" width="6" x="347.5" y="372.6836"/><text fill="#000000" font-family="sans-serif" font-size="11" lengthAdjust="spacingAndGlyphs" textLength="261" x="359.5" y="377.9917">Command offsetLevel(String name, int offset)</text><rect fill="#F24D5C" height="6" style="stroke: #C82930; stroke-width: 1.0;" width="6" x="347.5" y="385.4883"/><text fill="#000000" font-family="sans-serif" font-size="11" lengthAdjust="spacingAndGlyphs" textLength="118" x="359.5" y="390.7964">void startRecording()</text><ellipse cx="350.5" cy="401.293" fill="#84BE84" rx="3" ry="3" style="stroke: #038048; stroke-width: 1.0;"/><text fill="#000000" font-family="sans-serif" font-size="11" lengthAdjust="spacingAndGlyphs" textLength="132" x="359.5" y="403.6011">Optional&lt;Level&gt; level()</text><ellipse cx="350.5" cy="414.0977" fill="#84BE84" rx="3" ry="3" style="stroke: #038048; stroke-width: 1.0;"/><text fill="#000000" font-family="sans-serif" font-size="11" lengthAdjust="spacingAndGlyphs" textLength="129" x="359.5" y="416.4058">KeyBindings bindings()</text><ellipse cx="350.5" cy="426.9023" fill="#84BE84" rx="3" ry="3" style="stroke: #038048; stroke-width: 1.0;"/><text fill="#000000" font-family="sans-serif" font-size="11" lengthAdjust="spacingAndGlyphs" textLength="223" x="359.5" y="429.2104">void setBindings(KeyBindings bindings)</text><ellipse cx="350.5" cy="439.707" fill="#84BE84" rx="3" ry="3" style="stroke: #038048; stroke-width: 1.0;"/><text fill="#000000" font-family="sans-serif" font-size="11" lengthAdjust="spacingAndGlyphs" textLength="216" x="359.5" y="442.0151">void pushBindings(KeyBindings binds)</text><ellipse cx="350.5" cy="452.5117" fill="#84BE84" rx="3" ry="3" style="stroke: #038048; stroke-width: 1.0;"/><text fill="#000000" font-family="sans-serif" font-size="11" lengthAdjust="spacingAndGlyphs" textLength="105" x="359.5" y="454.8198">void popBindings()</text><ellipse cx="350.5" cy="465.3164" fill="#84BE84" rx="3" ry="3" style="stroke: #038048; stroke-width: 1.0;"/><text fill="#000000" font-family="sans-serif" font-size="11" lengthAdjust="spacingAndGlyphs" textLength="177" x="359.5" y="467.6245">void keyPressed(KeyPress key)</text><ellipse cx="350.5" cy="478.1211" fill="#84BE84" rx="3" ry="3" style="stroke: #038048; stroke-width: 1.0;"/><text fill="#000000" font-family="sans-serif" font-size="11" lengthAdjust="spacingAndGlyphs" textLength="148" x="359.5" y="480.4292">void displaySizeChanged()</text><rect fill="#FEFECE" filter="url(#f1)" height="329.7031" style="stroke: #A80036; stroke-width: 1.5;" width="264" x="6" y="201.9531"/><ellipse cx="118.25" cy="217.9531" fill="#ADD1B2" rx="11" ry="11" style="stroke: #A80036; stroke-width: 1.0;"/><path d="M120.5938,213.625 L120.7656,213.7031 C120.9844,213.3906 121.1875,213.2969 121.4844,213.2969 C121.7813,213.2969 122.0625,213.4375 122.2188,213.7031 C122.3125,213.8594 122.3281,213.9844 122.3281,214.4219 L122.3281,215.8438 C122.3281,216.2656 122.2969,216.4531 122.1875,216.6094 C122.0156,216.8281 121.75,216.9688 121.4844,216.9688 C121.2656,216.9688 121.0313,216.8594 120.8906,216.7188 C120.75,216.5938 120.7188,216.4688 120.6563,216.0625 C120.5625,215.6563 120.3906,215.4375 119.9063,215.1563 C119.4375,214.9063 118.8281,214.75 118.25,214.75 C116.5156,214.75 115.2656,216.0625 115.2656,217.8438 L115.2656,218.9375 C115.2656,220.6406 116.5625,221.7344 118.6094,221.7344 C119.375,221.7344 120.0625,221.6094 120.4844,221.3438 C120.6719,221.25 120.6719,221.25 121.125,220.7656 C121.3125,220.5781 121.5156,220.5 121.7344,220.5 C122.2031,220.5 122.5938,220.8906 122.5938,221.3438 C122.5938,221.7344 122.2656,222.1875 121.6875,222.5938 C120.9375,223.1406 119.7813,223.4375 118.5625,223.4375 C115.6719,223.4375 113.5625,221.5469 113.5625,218.9688 L113.5625,217.8438 C113.5625,215.125 115.5625,213.0469 118.1875,213.0469 C119.0625,213.0469 119.6563,213.1875 120.5938,213.625 Z "/><text fill="#000000" font-family="sans-serif" font-size="12" lengthAdjust="spacingAndGlyphs" textLength="31" x="138.75" y="222.1074">Level</text><line style="stroke: #A80036; stroke-width: 1.5;" x1="7" x2="269" y1="233.9531" y2="233.9531"/><rect fill="none" height="6" style="stroke: #C82930; stroke-width: 1.0;" width="6" x="14" y="242.8555"/><text fill="#000000" font-family="sans-serif" font-size="11" lengthAdjust="spacingAndGlyphs" textLength="48" x="26" y="248.1636">int index</text><rect fill="none" height="6" style="stroke: #C82930; stroke-width: 1.0;" width="6" x="14" y="255.6602"/><text fill="#000000" font-family="sans-serif" font-size="11" lengthAdjust="spacingAndGlyphs" textLength="31" x="26" y="260.9683">int px</text><rect fill="none" height="6" style="stroke: #C82930; stroke-width: 1.0;" width="6" x="14" y="268.4648"/><text fill="#000000" font-family="sans-serif" font-size="11" lengthAdjust="spacingAndGlyphs" textLength="31" x="26" y="273.7729">int py</text><line style="stroke: #A80036; stroke-width: 1.5;" x1="7" x2="269" y1="280.3672" y2="280.3672"/><ellipse cx="17" cy="292.2695" fill="#84BE84" rx="3" ry="3" style="stroke: #038048; stroke-width: 1.0;"/><text fill="#000000" font-family="sans-serif" font-size="11" lengthAdjust="spacingAndGlyphs" textLength="202" x="26" y="294.5776">Level(int index, int width, int height)</text><ellipse cx="17" cy="305.0742" fill="#84BE84" rx="3" ry="3" style="stroke: #038048; stroke-width: 1.0;"/><text fill="#000000" font-family="sans-serif" font-size="11" lengthAdjust="spacingAndGlyphs" textLength="96" x="26" y="307.3823">void scanInside()</text><rect fill="#F24D5C" height="6" style="stroke: #C82930; stroke-width: 1.0;" width="6" x="14" y="314.8789"/><text fill="#000000" font-family="sans-serif" font-size="11" lengthAdjust="spacingAndGlyphs" textLength="152" x="26" y="320.187">void scanInside(int x, int y)</text><ellipse cx="17" cy="330.6836" fill="#84BE84" rx="3" ry="3" style="stroke: #038048; stroke-width: 1.0;"/><text fill="#000000" font-family="sans-serif" font-size="11" lengthAdjust="spacingAndGlyphs" textLength="56" x="26" y="332.9917">int index()</text><polygon fill="#4177AF" points="17,339.4883,13,345.4883,21,345.4883" style="stroke: #1963A0; stroke-width: 1.0;"/><text fill="#000000" font-family="sans-serif" font-size="11" lengthAdjust="spacingAndGlyphs" textLength="108" x="26" y="345.7964">Cell cell(int x, int y)</text><polygon fill="#4177AF" points="17,352.293,13,358.293,21,358.293" style="stroke: #1963A0; stroke-width: 1.0;"/><text fill="#000000" font-family="sans-serif" font-size="11" lengthAdjust="spacingAndGlyphs" textLength="56" x="26" y="358.6011">int width()</text><polygon fill="#4177AF" points="17,365.0977,13,371.0977,21,371.0977" style="stroke: #1963A0; stroke-width: 1.0;"/><text fill="#000000" font-family="sans-serif" font-size="11" lengthAdjust="spacingAndGlyphs" textLength="61" x="26" y="371.4058">int height()</text><polygon fill="#4177AF" points="17,377.9023,13,383.9023,21,383.9023" style="stroke: #1963A0; stroke-width: 1.0;"/><text fill="#000000" font-family="sans-serif" font-size="11" lengthAdjust="spacingAndGlyphs" textLength="118" x="26" y="384.2104">void setWall(Point pt)</text><polygon fill="#4177AF" points="17,390.707,13,396.707,21,396.707" style="stroke: #1963A0; stroke-width: 1.0;"/><text fill="#000000" font-family="sans-serif" font-size="11" lengthAdjust="spacingAndGlyphs" textLength="127" x="26" y="397.0151">void setCrate(Point pt)</text><polygon fill="#4177AF" points="17,403.5117,13,409.5117,21,409.5117" style="stroke: #1963A0; stroke-width: 1.0;"/><text fill="#000000" font-family="sans-serif" font-size="11" lengthAdjust="spacingAndGlyphs" textLength="131" x="26" y="409.8198">void setPlayer(Point pt)</text><polygon fill="#4177AF" points="17,416.3164,13,422.3164,21,422.3164" style="stroke: #1963A0; stroke-width: 1.0;"/><text fill="#000000" font-family="sans-serif" font-size="11" lengthAdjust="spacingAndGlyphs" textLength="133" x="26" y="422.6245">void setTarget(Point pt)</text><rect fill="#F24D5C" height="6" style="stroke: #C82930; stroke-width: 1.0;" width="6" x="14" y="430.1211"/><text fill="#000000" font-family="sans-serif" font-size="11" lengthAdjust="spacingAndGlyphs" textLength="238" x="26" y="435.4292">void setContent(Point pt, Content content)</text><polygon fill="#4177AF" points="17,441.9258,13,447.9258,21,447.9258" style="stroke: #1963A0; stroke-width: 1.0;"/><text fill="#000000" font-family="sans-serif" font-size="11" lengthAdjust="spacingAndGlyphs" textLength="73" x="26" y="448.2339">void rewind()</text><polygon fill="#4177AF" points="17,454.7305,13,460.7305,21,460.7305" style="stroke: #1963A0; stroke-width: 1.0;"/><text fill="#000000" font-family="sans-serif" font-size="11" lengthAdjust="spacingAndGlyphs" textLength="85" x="26" y="461.0386">boolean done()</text><polygon fill="#4177AF" points="17,467.5352,13,473.5352,21,473.5352" style="stroke: #1963A0; stroke-width: 1.0;"/><text fill="#000000" font-family="sans-serif" font-size="11" lengthAdjust="spacingAndGlyphs" textLength="92" x="26" y="473.8433">List&lt;Point&gt; up()</text><polygon fill="#4177AF" points="17,480.3398,13,486.3398,21,486.3398" style="stroke: #1963A0; stroke-width: 1.0;"/><text fill="#000000" font-family="sans-serif" font-size="11" lengthAdjust="spacingAndGlyphs" textLength="104" x="26" y="486.6479">List&lt;Point&gt; right()</text><polygon fill="#4177AF" points="17,493.1445,13,499.1445,21,499.1445" style="stroke: #1963A0; stroke-width: 1.0;"/><text fill="#000000" font-family="sans-serif" font-size="11" lengthAdjust="spacingAndGlyphs" textLength="108" x="26" y="499.4526">List&lt;Point&gt; down()</text><polygon fill="#4177AF" points="17,505.9492,13,511.9492,21,511.9492" style="stroke: #1963A0; stroke-width: 1.0;"/><text fill="#000000" font-family="sans-serif" font-size="11" lengthAdjust="spacingAndGlyphs" textLength="96" x="26" y="512.2573">List&lt;Point&gt; left()</text><rect fill="#F24D5C" height="6" style="stroke: #C82930; stroke-width: 1.0;" width="6" x="14" y="519.7539"/><text fill="#000000" font-family="sans-serif" font-size="11" lengthAdjust="spacingAndGlyphs" textLength="179" x="26" y="525.062">List&lt;Point&gt; move(int dx, int dy)</text><rect fill="#FEFECE" filter="url(#f1)" height="48" style="stroke: #A80036; stroke-width: 1.5;" width="90" x="890" y="342.9531"/><ellipse cx="905" cy="358.9531" fill="#ADD1B2" rx="11" ry="11" style="stroke: #A80036; stroke-width: 1.0;"/><path d="M907.3438,354.625 L907.5156,354.7031 C907.7344,354.3906 907.9375,354.2969 908.2344,354.2969 C908.5313,354.2969 908.8125,354.4375 908.9688,354.7031 C909.0625,354.8594 909.0781,354.9844 909.0781,355.4219 L909.0781,356.8438 C909.0781,357.2656 909.0469,357.4531 908.9375,357.6094 C908.7656,357.8281 908.5,357.9688 908.2344,357.9688 C908.0156,357.9688 907.7813,357.8594 907.6406,357.7188 C907.5,357.5938 907.4688,357.4688 907.4063,357.0625 C907.3125,356.6563 907.1406,356.4375 906.6563,356.1563 C906.1875,355.9063 905.5781,355.75 905,355.75 C903.2656,355.75 902.0156,357.0625 902.0156,358.8438 L902.0156,359.9375 C902.0156,361.6406 903.3125,362.7344 905.3594,362.7344 C906.125,362.7344 906.8125,362.6094 907.2344,362.3438 C907.4219,362.25 907.4219,362.25 907.875,361.7656 C908.0625,361.5781 908.2656,361.5 908.4844,361.5 C908.9531,361.5 909.3438,361.8906 909.3438,362.3438 C909.3438,362.7344 909.0156,363.1875 908.4375,363.5938 C907.6875,364.1406 906.5313,364.4375 905.3125,364.4375 C902.4219,364.4375 900.3125,362.5469 900.3125,359.9688 L900.3125,358.8438 C900.3125,356.125 902.3125,354.0469 904.9375,354.0469 C905.8125,354.0469 906.4063,354.1875 907.3438,354.625 Z "/><text fill="#000000" font-family="sans-serif" font-size="12" lengthAdjust="spacingAndGlyphs" textLength="58" x="919" y="363.1074">Renderer</text><line style="stroke: #A80036; stroke-width: 1.5;" x1="891" x2="979" y1="374.9531" y2="374.9531"/><line style="stroke: #A80036; stroke-width: 1.5;" x1="891" x2="979" y1="382.9531" y2="382.9531"/><rect fill="#FEFECE" filter="url(#f1)" height="112.0234" style="stroke: #A80036; stroke-width: 1.5;" width="144" x="66" y="28.9531"/><ellipse cx="122.75" cy="44.9531" fill="#ADD1B2" rx="11" ry="11" style="stroke: #A80036; stroke-width: 1.0;"/><path d="M125.0938,40.625 L125.2656,40.7031 C125.4844,40.3906 125.6875,40.2969 125.9844,40.2969 C126.2813,40.2969 126.5625,40.4375 126.7188,40.7031 C126.8125,40.8594 126.8281,40.9844 126.8281,41.4219 L126.8281,42.8438 C126.8281,43.2656 126.7969,43.4531 126.6875,43.6094 C126.5156,43.8281 126.25,43.9688 125.9844,43.9688 C125.7656,43.9688 125.5313,43.8594 125.3906,43.7188 C125.25,43.5938 125.2188,43.4688 125.1563,43.0625 C125.0625,42.6563 124.8906,42.4375 124.4063,42.1563 C123.9375,41.9063 123.3281,41.75 122.75,41.75 C121.0156,41.75 119.7656,43.0625 119.7656,44.8438 L119.7656,45.9375 C119.7656,47.6406 121.0625,48.7344 123.1094,48.7344 C123.875,48.7344 124.5625,48.6094 124.9844,48.3438 C125.1719,48.25 125.1719,48.25 125.625,47.7656 C125.8125,47.5781 126.0156,47.5 126.2344,47.5 C126.7031,47.5 127.0938,47.8906 127.0938,48.3438 C127.0938,48.7344 126.7656,49.1875 126.1875,49.5938 C125.4375,50.1406 124.2813,50.4375 123.0625,50.4375 C120.1719,50.4375 118.0625,48.5469 118.0625,45.9688 L118.0625,44.8438 C118.0625,42.125 120.0625,40.0469 122.6875,40.0469 C123.5625,40.0469 124.1563,40.1875 125.0938,40.625 Z "/><text fill="#000000" font-family="sans-serif" font-size="12" lengthAdjust="spacingAndGlyphs" textLength="22" x="143.25" y="49.1074">Cell</text><line style="stroke: #A80036; stroke-width: 1.5;" x1="67" x2="209" y1="60.9531" y2="60.9531"/><rect fill="none" height="6" style="stroke: #C82930; stroke-width: 1.0;" width="6" x="74" y="69.8555"/><text fill="#000000" font-family="sans-serif" font-size="11" lengthAdjust="spacingAndGlyphs" textLength="83" x="86" y="75.1636">boolean target</text><rect fill="none" height="6" style="stroke: #C82930; stroke-width: 1.0;" width="6" x="74" y="82.6602"/><text fill="#000000" font-family="sans-serif" font-size="11" lengthAdjust="spacingAndGlyphs" textLength="91" x="86" y="87.9683">boolean outside</text><line style="stroke: #A80036; stroke-width: 1.5;" x1="67" x2="209" y1="94.5625" y2="94.5625"/><polygon fill="#4177AF" points="77,102.4648,73,108.4648,81,108.4648" style="stroke: #1963A0; stroke-width: 1.0;"/><text fill="#000000" font-family="sans-serif" font-size="11" lengthAdjust="spacingAndGlyphs" textLength="118" x="86" y="108.7729">Content getContent()</text><polygon fill="#4177AF" points="77,115.2695,73,121.2695,81,121.2695" style="stroke: #1963A0; stroke-width: 1.0;"/><text fill="#000000" font-family="sans-serif" font-size="11" lengthAdjust="spacingAndGlyphs" textLength="104" x="86" y="121.5776">boolean isTarget()</text><polygon fill="#4177AF" points="77,128.0742,73,134.0742,81,134.0742" style="stroke: #1963A0; stroke-width: 1.0;"/><text fill="#000000" font-family="sans-serif" font-size="11" lengthAdjust="spacingAndGlyphs" textLength="111" x="86" y="134.3823">boolean isOutside()</text><rect fill="#FEFECE" filter="url(#f1)" height="99.2188" style="stroke: #A80036; stroke-width: 1.5;" width="82" x="280" y="35.4531"/><ellipse cx="295" cy="51.4531" fill="#EB937F" rx="11" ry="11" style="stroke: #A80036; stroke-width: 1.0;"/><path d="M293.2969,52.3281 L293.2969,54.75 L297.6563,54.75 L297.6563,53.875 C297.6563,53.3906 297.6875,53.25 297.7969,53.0938 C297.9688,52.8438 298.2344,52.7344 298.5,52.7344 C298.7813,52.7344 299.0625,52.8906 299.2344,53.1406 C299.3125,53.2969 299.3438,53.4375 299.3438,53.875 L299.3438,56.4531 L291.3438,56.4531 C290.9531,56.4531 290.7188,56.4063 290.5781,56.2813 C290.3594,56.125 290.2188,55.875 290.2188,55.6094 C290.2188,55.3125 290.375,55.0469 290.625,54.875 C290.7813,54.7656 290.9375,54.75 291.3438,54.75 L291.5938,54.75 L291.5938,48.2344 L291.3438,48.2344 C290.9219,48.2344 290.7344,48.2031 290.5781,48.0938 C290.3594,47.9219 290.2188,47.6719 290.2188,47.3906 C290.2188,47.1094 290.375,46.8125 290.625,46.6563 C290.7813,46.5625 290.9063,46.5469 291.3438,46.5469 L298.9688,46.5469 L298.9688,49.0938 C298.9688,49.5625 298.9375,49.7031 298.8281,49.875 C298.6563,50.0938 298.3906,50.2344 298.125,50.2344 C297.8438,50.2344 297.5625,50.0781 297.3906,49.8281 C297.3125,49.6719 297.2813,49.5 297.2813,49.0938 L297.2813,48.2344 L293.2969,48.2344 L293.2969,50.6406 L294.75,50.6406 L294.75,50.5156 C294.75,50.0625 294.7813,49.9063 294.8906,49.7344 C295.0625,49.5156 295.3281,49.375 295.5781,49.375 C296.0313,49.375 296.3438,49.6875 296.4063,50.1563 C296.4219,50.3125 296.4219,50.3594 296.4219,50.5156 L296.4219,52.4375 C296.4219,52.8906 296.3906,53.0469 296.2656,53.2031 C296.1094,53.4219 295.8438,53.5625 295.5938,53.5625 C295.2969,53.5625 295.0156,53.4063 294.8594,53.1563 C294.7813,53 294.75,52.8438 294.75,52.4375 L294.75,52.3281 Z "/><text fill="#000000" font-family="sans-serif" font-size="12" lengthAdjust="spacingAndGlyphs" textLength="50" x="309" y="55.6074">Content</text><line style="stroke: #A80036; stroke-width: 1.5;" x1="281" x2="361" y1="67.4531" y2="67.4531"/><text fill="#000000" font-family="sans-serif" font-size="11" lengthAdjust="spacingAndGlyphs" textLength="24" x="286" y="81.6636">Void</text><text fill="#000000" font-family="sans-serif" font-size="11" lengthAdjust="spacingAndGlyphs" textLength="22" x="286" y="94.4683">Wall</text><text fill="#000000" font-family="sans-serif" font-size="11" lengthAdjust="spacingAndGlyphs" textLength="35" x="286" y="107.2729">Player</text><text fill="#000000" font-family="sans-serif" font-size="11" lengthAdjust="spacingAndGlyphs" textLength="31" x="286" y="120.0776">Crate</text><line style="stroke: #A80036; stroke-width: 1.5;" x1="281" x2="361" y1="126.6719" y2="126.6719"/><rect fill="#FEFECE" filter="url(#f1)" height="86.4141" style="stroke: #A80036; stroke-width: 1.5;" width="162" x="330" y="640.9531"/><ellipse cx="367.95" cy="656.9531" fill="#A9DCDF" rx="11" ry="11" style="stroke: #A80036; stroke-width: 1.0;"/><path d="M369.5281,658.7656 L365.4813,658.7656 L365.0906,659.75 L365.4813,659.75 C365.9344,659.75 366.075,659.7813 366.2469,659.9063 C366.4656,660.0781 366.5906,660.3281 366.5906,660.6094 C366.5906,660.8906 366.45,661.1875 366.1844,661.3281 C366.0594,661.4219 365.8406,661.4531 365.4813,661.4531 L363.2156,661.4531 C362.4656,661.4531 362.0906,661.1719 362.0906,660.6094 C362.0906,660.3125 362.2469,660.0313 362.4969,659.875 C362.6531,659.7656 362.8094,659.75 363.2313,659.75 L365.8719,653.2344 L364.7938,653.2344 C364.3563,653.2344 364.1844,653.2031 364.0125,653.0938 C363.7938,652.9219 363.6531,652.6719 363.6531,652.3906 C363.6531,652.1094 363.8094,651.8281 364.0594,651.6563 C364.2156,651.5625 364.3406,651.5469 364.7938,651.5469 L368.4656,651.5469 L371.8563,659.75 C372.325,659.75 372.4813,659.7813 372.6531,659.9219 C372.8719,660.0781 373.0125,660.3281 373.0125,660.6094 C373.0125,660.8906 372.8563,661.1875 372.6063,661.3281 C372.4656,661.4219 372.2469,661.4531 371.8875,661.4531 L369.5281,661.4531 C369.1063,661.4531 368.9031,661.4063 368.7625,661.2813 C368.5438,661.125 368.4031,660.875 368.4031,660.6094 C368.4031,660.3125 368.5594,660.0313 368.8094,659.875 C368.9656,659.7656 369.075,659.75 369.5281,659.75 L369.9188,659.75 Z M368.825,657.0625 L367.4969,653.7969 L366.1531,657.0625 Z "/><text fill="#000000" font-family="sans-serif" font-size="12" font-style="italic" lengthAdjust="spacingAndGlyphs" textLength="79" x="387.05" y="661.1074">LevelFactory</text><line style="stroke: #A80036; stroke-width: 1.5;" x1="331" x2="491" y1="672.9531" y2="672.9531"/><line style="stroke: #A80036; stroke-width: 1.5;" x1="331" x2="491" y1="680.9531" y2="680.9531"/><ellipse cx="341" cy="692.8555" fill="#84BE84" rx="3" ry="3" style="stroke: #038048; stroke-width: 1.0;"/><text fill="#000000" font-family="sans-serif" font-size="11" lengthAdjust="spacingAndGlyphs" text-decoration="underline" textLength="114" x="350" y="695.1636">void load(String file)</text><line style="stroke: #000000; stroke-width: 1.0;" x1="350" x2="464" y1="697.1636" y2="697.1636"/><ellipse cx="341" cy="705.6602" fill="#84BE84" rx="3" ry="3" style="stroke: #038048; stroke-width: 1.0;"/><text fill="#000000" font-family="sans-serif" font-size="11" lengthAdjust="spacingAndGlyphs" text-decoration="underline" textLength="106" x="350" y="707.9683">int getNumLevels()</text><line style="stroke: #000000; stroke-width: 1.0;" x1="350" x2="456" y1="709.9683" y2="709.9683"/><ellipse cx="341" cy="718.4648" fill="#84BE84" rx="3" ry="3" style="stroke: #038048; stroke-width: 1.0;"/><text fill="#000000" font-family="sans-serif" font-size="11" lengthAdjust="spacingAndGlyphs" text-decoration="underline" textLength="136" x="350" y="720.7729">Level getLevel(int index)</text><line style="stroke: #000000; stroke-width: 1.0;" x1="350" x2="486" y1="722.7729" y2="722.7729"/><rect fill="#FEFECE" filter="url(#f1)" height="150.4375" style="stroke: #A80036; stroke-width: 1.5;" width="187" x="73.5" y="608.9531"/><ellipse cx="119.25" cy="624.9531" fill="#ADD1B2" rx="11" ry="11" style="stroke: #A80036; stroke-width: 1.0;"/><path d="M121.5938,620.625 L121.7656,620.7031 C121.9844,620.3906 122.1875,620.2969 122.4844,620.2969 C122.7813,620.2969 123.0625,620.4375 123.2188,620.7031 C123.3125,620.8594 123.3281,620.9844 123.3281,621.4219 L123.3281,622.8438 C123.3281,623.2656 123.2969,623.4531 123.1875,623.6094 C123.0156,623.8281 122.75,623.9688 122.4844,623.9688 C122.2656,623.9688 122.0313,623.8594 121.8906,623.7188 C121.75,623.5938 121.7188,623.4688 121.6563,623.0625 C121.5625,622.6563 121.3906,622.4375 120.9063,622.1563 C120.4375,621.9063 119.8281,621.75 119.25,621.75 C117.5156,621.75 116.2656,623.0625 116.2656,624.8438 L116.2656,625.9375 C116.2656,627.6406 117.5625,628.7344 119.6094,628.7344 C120.375,628.7344 121.0625,628.6094 121.4844,628.3438 C121.6719,628.25 121.6719,628.25 122.125,627.7656 C122.3125,627.5781 122.5156,627.5 122.7344,627.5 C123.2031,627.5 123.5938,627.8906 123.5938,628.3438 C123.5938,628.7344 123.2656,629.1875 122.6875,629.5938 C121.9375,630.1406 120.7813,630.4375 119.5625,630.4375 C116.6719,630.4375 114.5625,628.5469 114.5625,625.9688 L114.5625,624.8438 C114.5625,622.125 116.5625,620.0469 119.1875,620.0469 C120.0625,620.0469 120.6563,620.1875 121.5938,620.625 Z "/><text fill="#000000" font-family="sans-serif" font-size="12" lengthAdjust="spacingAndGlyphs" textLength="87" x="139.75" y="629.1074">LevelBlueprint</text><line style="stroke: #A80036; stroke-width: 1.5;" x1="74.5" x2="259.5" y1="640.9531" y2="640.9531"/><rect fill="none" height="6" style="stroke: #C82930; stroke-width: 1.0;" width="6" x="81.5" y="649.8555"/><text fill="#000000" font-family="sans-serif" font-size="11" lengthAdjust="spacingAndGlyphs" textLength="48" x="93.5" y="655.1636">int width</text><rect fill="none" height="6" style="stroke: #C82930; stroke-width: 1.0;" width="6" x="81.5" y="662.6602"/><text fill="#000000" font-family="sans-serif" font-size="11" lengthAdjust="spacingAndGlyphs" textLength="53" x="93.5" y="667.9683">int height</text><rect fill="none" height="6" style="stroke: #C82930; stroke-width: 1.0;" width="6" x="81.5" y="675.4648"/><text fill="#000000" font-family="sans-serif" font-size="11" lengthAdjust="spacingAndGlyphs" textLength="67" x="93.5" y="680.7729">Point player</text><rect fill="none" height="6" style="stroke: #C82930; stroke-width: 1.0;" width="6" x="81.5" y="688.2695"/><text fill="#000000" font-family="sans-serif" font-size="11" lengthAdjust="spacingAndGlyphs" textLength="99" x="93.5" y="693.5776">List&lt;Point&gt; walls</text><rect fill="none" height="6" style="stroke: #C82930; stroke-width: 1.0;" width="6" x="81.5" y="701.0742"/><text fill="#000000" font-family="sans-serif" font-size="11" lengthAdjust="spacingAndGlyphs" textLength="106" x="93.5" y="706.3823">List&lt;Point&gt; crates</text><rect fill="none" height="6" style="stroke: #C82930; stroke-width: 1.0;" width="6" x="81.5" y="713.8789"/><text fill="#000000" font-family="sans-serif" font-size="11" lengthAdjust="spacingAndGlyphs" textLength="111" x="93.5" y="719.187">List&lt;Point&gt; targets</text><line style="stroke: #A80036; stroke-width: 1.5;" x1="74.5" x2="259.5" y1="725.7813" y2="725.7813"/><polygon fill="#4177AF" points="84.5,733.6836,80.5,739.6836,88.5,739.6836" style="stroke: #1963A0; stroke-width: 1.0;"/><text fill="#000000" font-family="sans-serif" font-size="11" lengthAdjust="spacingAndGlyphs" textLength="161" x="93.5" y="739.9917">LevelBlueprint(String[] lines)</text><polygon fill="#4177AF" points="84.5,746.4883,80.5,752.4883,88.5,752.4883" style="stroke: #1963A0; stroke-width: 1.0;"/><text fill="#000000" font-family="sans-serif" font-size="11" lengthAdjust="spacingAndGlyphs" textLength="116" x="93.5" y="752.7964">Level build(int index)</text><rect fill="#FEFECE" filter="url(#f1)" height="124.8281" style="stroke: #A80036; stroke-width: 1.5;" width="326" x="248" y="819.9531"/><ellipse cx="349.25" cy="835.9531" fill="#ADD1B2" rx="11" ry="11" style="stroke: #A80036; stroke-width: 1.0;"/><path d="M351.5938,831.625 L351.7656,831.7031 C351.9844,831.3906 352.1875,831.2969 352.4844,831.2969 C352.7813,831.2969 353.0625,831.4375 353.2188,831.7031 C353.3125,831.8594 353.3281,831.9844 353.3281,832.4219 L353.3281,833.8438 C353.3281,834.2656 353.2969,834.4531 353.1875,834.6094 C353.0156,834.8281 352.75,834.9688 352.4844,834.9688 C352.2656,834.9688 352.0313,834.8594 351.8906,834.7188 C351.75,834.5938 351.7188,834.4688 351.6563,834.0625 C351.5625,833.6563 351.3906,833.4375 350.9063,833.1563 C350.4375,832.9063 349.8281,832.75 349.25,832.75 C347.5156,832.75 346.2656,834.0625 346.2656,835.8438 L346.2656,836.9375 C346.2656,838.6406 347.5625,839.7344 349.6094,839.7344 C350.375,839.7344 351.0625,839.6094 351.4844,839.3438 C351.6719,839.25 351.6719,839.25 352.125,838.7656 C352.3125,838.5781 352.5156,838.5 352.7344,838.5 C353.2031,838.5 353.5938,838.8906 353.5938,839.3438 C353.5938,839.7344 353.2656,840.1875 352.6875,840.5938 C351.9375,841.1406 350.7813,841.4375 349.5625,841.4375 C346.6719,841.4375 344.5625,839.5469 344.5625,836.9688 L344.5625,835.8438 C344.5625,833.125 346.5625,831.0469 349.1875,831.0469 C350.0625,831.0469 350.6563,831.1875 351.5938,831.625 Z "/><text fill="#000000" font-family="sans-serif" font-size="12" lengthAdjust="spacingAndGlyphs" textLength="115" x="369.75" y="840.1074">TelnetGameServer</text><line style="stroke: #A80036; stroke-width: 1.5;" x1="249" x2="573" y1="851.9531" y2="851.9531"/><rect fill="none" height="6" style="stroke: #C82930; stroke-width: 1.0;" width="6" x="256" y="860.8555"/><text fill="#000000" font-family="sans-serif" font-size="11" lengthAdjust="spacingAndGlyphs" textLength="41" x="268" y="866.1636">int port</text><rect fill="none" height="6" style="stroke: #C82930; stroke-width: 1.0;" width="6" x="256" y="873.6602"/><text fill="#000000" font-family="sans-serif" font-size="11" lengthAdjust="spacingAndGlyphs" textLength="81" x="268" y="878.9683">Thread thread</text><line style="stroke: #A80036; stroke-width: 1.5;" x1="249" x2="573" y1="885.5625" y2="885.5625"/><ellipse cx="259" cy="897.4648" fill="#84BE84" rx="3" ry="3" style="stroke: #038048; stroke-width: 1.0;"/><text fill="#000000" font-family="sans-serif" font-size="11" lengthAdjust="spacingAndGlyphs" text-decoration="underline" textLength="300" x="268" y="899.7729">TelnetGameServer bind(Function&lt;&gt; factory, int port)</text><line style="stroke: #000000; stroke-width: 1.0;" x1="268" x2="568" y1="901.7729" y2="901.7729"/><rect fill="#F24D5C" height="6" style="stroke: #C82930; stroke-width: 1.0;" width="6" x="256" y="907.2695"/><text fill="#000000" font-family="sans-serif" font-size="11" lengthAdjust="spacingAndGlyphs" textLength="272" x="268" y="912.5776">TelnetGameServer(Function&lt;&gt; factory, int port)</text><ellipse cx="259" cy="923.0742" fill="#84BE84" rx="3" ry="3" style="stroke: #038048; stroke-width: 1.0;"/><text fill="#000000" font-family="sans-serif" font-size="11" lengthAdjust="spacingAndGlyphs" textLength="62" x="268" y="925.3823">void start()</text><rect fill="#F24D5C" height="6" style="stroke: #C82930; stroke-width: 1.0;" width="6" x="256" y="932.8789"/><text fill="#000000" font-family="sans-serif" font-size="11" lengthAdjust="spacingAndGlyphs" textLength="54" x="268" y="938.187">void run()</text><rect fill="#FEFECE" filter="url(#f1)" height="60.8047" style="stroke: #A80036; stroke-width: 1.5;" width="151" x="697.5" y="851.9531"/><ellipse cx="742.75" cy="867.9531" fill="#ADD1B2" rx="11" ry="11" style="stroke: #A80036; stroke-width: 1.0;"/><path d="M745.0938,863.625 L745.2656,863.7031 C745.4844,863.3906 745.6875,863.2969 745.9844,863.2969 C746.2813,863.2969 746.5625,863.4375 746.7188,863.7031 C746.8125,863.8594 746.8281,863.9844 746.8281,864.4219 L746.8281,865.8438 C746.8281,866.2656 746.7969,866.4531 746.6875,866.6094 C746.5156,866.8281 746.25,866.9688 745.9844,866.9688 C745.7656,866.9688 745.5313,866.8594 745.3906,866.7188 C745.25,866.5938 745.2188,866.4688 745.1563,866.0625 C745.0625,865.6563 744.8906,865.4375 744.4063,865.1563 C743.9375,864.9063 743.3281,864.75 742.75,864.75 C741.0156,864.75 739.7656,866.0625 739.7656,867.8438 L739.7656,868.9375 C739.7656,870.6406 741.0625,871.7344 743.1094,871.7344 C743.875,871.7344 744.5625,871.6094 744.9844,871.3438 C745.1719,871.25 745.1719,871.25 745.625,870.7656 C745.8125,870.5781 746.0156,870.5 746.2344,870.5 C746.7031,870.5 747.0938,870.8906 747.0938,871.3438 C747.0938,871.7344 746.7656,872.1875 746.1875,872.5938 C745.4375,873.1406 744.2813,873.4375 743.0625,873.4375 C740.1719,873.4375 738.0625,871.5469 738.0625,868.9688 L738.0625,867.8438 C738.0625,865.125 740.0625,863.0469 742.6875,863.0469 C743.5625,863.0469 744.1563,863.1875 745.0938,863.625 Z "/><text fill="#000000" font-family="sans-serif" font-size="12" lengthAdjust="spacingAndGlyphs" textLength="52" x="763.25" y="872.1074">Sokonet</text><line style="stroke: #A80036; stroke-width: 1.5;" x1="698.5" x2="847.5" y1="883.9531" y2="883.9531"/><line style="stroke: #A80036; stroke-width: 1.5;" x1="698.5" x2="847.5" y1="891.9531" y2="891.9531"/><text fill="#000000" font-family="sans-serif" font-size="11" lengthAdjust="spacingAndGlyphs" text-decoration="underline" textLength="139" x="703.5" y="906.1636">void main(String... args)</text><line style="stroke: #000000; stroke-width: 1.0;" x1="703.5" x2="842.5" y1="908.1636" y2="908.1636"/><rect fill="#FEFECE" filter="url(#f1)" height="48" style="stroke: #A80036; stroke-width: 1.5;" width="102" x="803" y="60.9531"/><ellipse cx="818" cy="76.9531" fill="#ADD1B2" rx="11" ry="11" style="stroke: #A80036; stroke-width: 1.0;"/><path d="M820.3438,72.625 L820.5156,72.7031 C820.7344,72.3906 820.9375,72.2969 821.2344,72.2969 C821.5313,72.2969 821.8125,72.4375 821.9688,72.7031 C822.0625,72.8594 822.0781,72.9844 822.0781,73.4219 L822.0781,74.8438 C822.0781,75.2656 822.0469,75.4531 821.9375,75.6094 C821.7656,75.8281 821.5,75.9688 821.2344,75.9688 C821.0156,75.9688 820.7813,75.8594 820.6406,75.7188 C820.5,75.5938 820.4688,75.4688 820.4063,75.0625 C820.3125,74.6563 820.1406,74.4375 819.6563,74.1563 C819.1875,73.9063 818.5781,73.75 818,73.75 C816.2656,73.75 815.0156,75.0625 815.0156,76.8438 L815.0156,77.9375 C815.0156,79.6406 816.3125,80.7344 818.3594,80.7344 C819.125,80.7344 819.8125,80.6094 820.2344,80.3438 C820.4219,80.25 820.4219,80.25 820.875,79.7656 C821.0625,79.5781 821.2656,79.5 821.4844,79.5 C821.9531,79.5 822.3438,79.8906 822.3438,80.3438 C822.3438,80.7344 822.0156,81.1875 821.4375,81.5938 C820.6875,82.1406 819.5313,82.4375 818.3125,82.4375 C815.4219,82.4375 813.3125,80.5469 813.3125,77.9688 L813.3125,76.8438 C813.3125,74.125 815.3125,72.0469 817.9375,72.0469 C818.8125,72.0469 819.4063,72.1875 820.3438,72.625 Z "/><text fill="#000000" font-family="sans-serif" font-size="12" lengthAdjust="spacingAndGlyphs" textLength="70" x="832" y="81.1074">AnsiDisplay</text><line style="stroke: #A80036; stroke-width: 1.5;" x1="804" x2="904" y1="92.9531" y2="92.9531"/><line style="stroke: #A80036; stroke-width: 1.5;" x1="804" x2="904" y1="100.9531" y2="100.9531"/><rect fill="#FEFECE" filter="url(#f1)" height="48" style="stroke: #A80036; stroke-width: 1.5;" width="106" x="527" y="659.9531"/><ellipse cx="542" cy="675.9531" fill="#ADD1B2" rx="11" ry="11" style="stroke: #A80036; stroke-width: 1.0;"/><path d="M544.3438,671.625 L544.5156,671.7031 C544.7344,671.3906 544.9375,671.2969 545.2344,671.2969 C545.5313,671.2969 545.8125,671.4375 545.9688,671.7031 C546.0625,671.8594 546.0781,671.9844 546.0781,672.4219 L546.0781,673.8438 C546.0781,674.2656 546.0469,674.4531 545.9375,674.6094 C545.7656,674.8281 545.5,674.9688 545.2344,674.9688 C545.0156,674.9688 544.7813,674.8594 544.6406,674.7188 C544.5,674.5938 544.4688,674.4688 544.4063,674.0625 C544.3125,673.6563 544.1406,673.4375 543.6563,673.1563 C543.1875,672.9063 542.5781,672.75 542,672.75 C540.2656,672.75 539.0156,674.0625 539.0156,675.8438 L539.0156,676.9375 C539.0156,678.6406 540.3125,679.7344 542.3594,679.7344 C543.125,679.7344 543.8125,679.6094 544.2344,679.3438 C544.4219,679.25 544.4219,679.25 544.875,678.7656 C545.0625,678.5781 545.2656,678.5 545.4844,678.5 C545.9531,678.5 546.3438,678.8906 546.3438,679.3438 C546.3438,679.7344 546.0156,680.1875 545.4375,680.5938 C544.6875,681.1406 543.5313,681.4375 542.3125,681.4375 C539.4219,681.4375 537.3125,679.5469 537.3125,676.9688 L537.3125,675.8438 C537.3125,673.125 539.3125,671.0469 541.9375,671.0469 C542.8125,671.0469 543.4063,671.1875 544.3438,671.625 Z "/><text fill="#000000" font-family="sans-serif" font-size="12" lengthAdjust="spacingAndGlyphs" textLength="74" x="556" y="680.1074">KeyBindings</text><line style="stroke: #A80036; stroke-width: 1.5;" x1="528" x2="632" y1="691.9531" y2="691.9531"/><line style="stroke: #A80036; stroke-width: 1.5;" x1="528" x2="632" y1="699.9531" y2="699.9531"/><rect fill="#FEFECE" filter="url(#f1)" height="48" style="stroke: #A80036; stroke-width: 1.5;" width="88" x="668" y="659.9531"/><ellipse cx="683" cy="675.9531" fill="#ADD1B2" rx="11" ry="11" style="stroke: #A80036; stroke-width: 1.0;"/><path d="M685.3438,671.625 L685.5156,671.7031 C685.7344,671.3906 685.9375,671.2969 686.2344,671.2969 C686.5313,671.2969 686.8125,671.4375 686.9688,671.7031 C687.0625,671.8594 687.0781,671.9844 687.0781,672.4219 L687.0781,673.8438 C687.0781,674.2656 687.0469,674.4531 686.9375,674.6094 C686.7656,674.8281 686.5,674.9688 686.2344,674.9688 C686.0156,674.9688 685.7813,674.8594 685.6406,674.7188 C685.5,674.5938 685.4688,674.4688 685.4063,674.0625 C685.3125,673.6563 685.1406,673.4375 684.6563,673.1563 C684.1875,672.9063 683.5781,672.75 683,672.75 C681.2656,672.75 680.0156,674.0625 680.0156,675.8438 L680.0156,676.9375 C680.0156,678.6406 681.3125,679.7344 683.3594,679.7344 C684.125,679.7344 684.8125,679.6094 685.2344,679.3438 C685.4219,679.25 685.4219,679.25 685.875,678.7656 C686.0625,678.5781 686.2656,678.5 686.4844,678.5 C686.9531,678.5 687.3438,678.8906 687.3438,679.3438 C687.3438,679.7344 687.0156,680.1875 686.4375,680.5938 C685.6875,681.1406 684.5313,681.4375 683.3125,681.4375 C680.4219,681.4375 678.3125,679.5469 678.3125,676.9688 L678.3125,675.8438 C678.3125,673.125 680.3125,671.0469 682.9375,671.0469 C683.8125,671.0469 684.4063,671.1875 685.3438,671.625 Z "/><text fill="#000000" font-family="sans-serif" font-size="12" lengthAdjust="spacingAndGlyphs" textLength="56" x="697" y="680.1074">KeyPress</text><line style="stroke: #A80036; stroke-width: 1.5;" x1="669" x2="755" y1="691.9531" y2="691.9531"/><line style="stroke: #A80036; stroke-width: 1.5;" x1="669" x2="755" y1="699.9531" y2="699.9531"/><path d="M580,142.2681 C580,172.2881 580,210.4191 580,246.6571 " fill="none" style="stroke: #A80036; stroke-width: 1.0; stroke-dasharray: 7.0,7.0;"/><polygon fill="none" points="573,141.9851,580,121.9851,587,141.9851,573,141.9851" style="stroke: #A80036; stroke-width: 1.0;"/><path d="M827.511,113.0221 C797.107,144.0921 745.179,197.1571 696.714,246.6841 " fill="none" style="stroke: #A80036; stroke-width: 1.0;"/><polygon fill="#A80036" points="831.11,109.3441,821.9567,112.9797,827.6132,112.918,827.675,118.5745,831.11,109.3441" style="stroke: #A80036; stroke-width: 1.0;"/><text fill="#000000" font-family="sans-serif" font-size="13" lengthAdjust="spacingAndGlyphs" textLength="8" x="816.5556" y="129.2006">1</text><text fill="#000000" font-family="sans-serif" font-size="13" lengthAdjust="spacingAndGlyphs" textLength="8" x="695.5825" y="235.967">1</text><path d="M580,487.0411 C580,547.8181 580,616.7221 580,654.4641 " fill="none" style="stroke: #A80036; stroke-width: 1.0;"/><polygon fill="#A80036" points="580,659.8021,584,650.8021,580,654.8021,576,650.8021,580,659.8021" style="stroke: #A80036; stroke-width: 1.0;"/><text fill="#000000" font-family="sans-serif" font-size="13" lengthAdjust="spacingAndGlyphs" textLength="8" x="571.7438" y="507.2836">1</text><text fill="#000000" font-family="sans-serif" font-size="13" lengthAdjust="spacingAndGlyphs" textLength="7" x="572.1031" y="648.7755">*</text><path d="M629.904,487.0411 C655.476,548.0671 684.483,617.2871 700.256,654.9271 " fill="none" style="stroke: #A80036; stroke-width: 1.0;"/><polygon fill="#A80036" points="702.299,659.8021,702.509,649.9555,700.3662,655.1908,695.1309,653.048,702.299,659.8021" style="stroke: #A80036; stroke-width: 1.0;"/><text fill="#000000" font-family="sans-serif" font-size="13" lengthAdjust="spacingAndGlyphs" textLength="8" x="624.8447" y="507.2836">1</text><text fill="#000000" font-family="sans-serif" font-size="13" lengthAdjust="spacingAndGlyphs" textLength="7" x="691.9162" y="648.7755">*</text><path d="M275.226,366.9531 C296.614,366.9531 318.002,366.9531 339.39,366.9531 " fill="none" style="stroke: #A80036; stroke-width: 1.0;"/><polygon fill="#A80036" points="270.082,366.9531,279.082,370.9531,275.082,366.9531,279.082,362.9531,270.082,366.9531" style="stroke: #A80036; stroke-width: 1.0;"/><text fill="#000000" font-family="sans-serif" font-size="13" lengthAdjust="spacingAndGlyphs" textLength="8" x="277.9492" y="363.5988">1</text><text fill="#000000" font-family="sans-serif" font-size="13" lengthAdjust="spacingAndGlyphs" textLength="8" x="323.3637" y="363.775">1</text><path d="M138,146.3911 C138,163.1271 138,182.1341 138,201.7961 " fill="none" style="stroke: #A80036; stroke-width: 1.0;"/><polygon fill="#A80036" points="138,141.2721,134,150.2721,138,146.2721,142,150.2721,138,141.2721" style="stroke: #A80036; stroke-width: 1.0;"/><text fill="#000000" font-family="sans-serif" font-size="13" lengthAdjust="spacingAndGlyphs" textLength="7" x="130.5734" y="161.1236">*</text><text fill="#000000" font-family="sans-serif" font-size="13" lengthAdjust="spacingAndGlyphs" textLength="8" x="129.8188" y="191.0492">1</text><path d="M210.199,84.9531 C231.703,84.9531 253.207,84.9531 274.711,84.9531 " fill="none" style="stroke: #A80036; stroke-width: 1.0;"/><polygon fill="#A80036" points="279.883,84.9531,270.883,80.9531,274.883,84.9531,270.883,88.9531,279.883,84.9531" style="stroke: #A80036; stroke-width: 1.0;"/><text fill="#000000" font-family="sans-serif" font-size="13" lengthAdjust="spacingAndGlyphs" textLength="8" x="218.057" y="81.2522">1</text><text fill="#000000" font-family="sans-serif" font-size="13" lengthAdjust="spacingAndGlyphs" textLength="8" x="264.1285" y="80.7236">1</text><path d="M820.596,366.9531 C843.685,366.9531 866.775,366.9531 889.864,366.9531 " fill="none" style="stroke: #A80036; stroke-width: 1.0;"/><text fill="#000000" font-family="sans-serif" font-size="13" lengthAdjust="spacingAndGlyphs" textLength="8" x="828.6218" y="363.775">1</text><text fill="#000000" font-family="sans-serif" font-size="13" lengthAdjust="spacingAndGlyphs" textLength="8" x="874.033" y="362.8353">1</text><path d="M516.108,487.0411 C488.264,538.9411 457.24,596.7661 436.162,636.0541 " fill="none" style="stroke: #A80036; stroke-width: 1.0; stroke-dasharray: 7.0,7.0;"/><polygon fill="#A80036" points="433.641,640.7521,441.4213,634.7133,436.0053,636.3464,434.3721,630.9304,433.641,640.7521" style="stroke: #A80036; stroke-width: 1.0;"/><text fill="#000000" font-family="sans-serif" font-size="13" lengthAdjust="spacingAndGlyphs" textLength="54" x="477" y="575.02">getLevel</text><path d="M265.997,683.9531 C287.259,683.9531 308.522,683.9531 329.784,683.9531 " fill="none" style="stroke: #A80036; stroke-width: 1.0;"/><polygon fill="#A80036" points="260.883,683.9531,269.883,687.9531,265.883,683.9531,269.883,679.9531,260.883,683.9531" style="stroke: #A80036; stroke-width: 1.0;"/><text fill="#000000" font-family="sans-serif" font-size="13" lengthAdjust="spacingAndGlyphs" textLength="7" x="268.6432" y="680.4102">*</text><text fill="#000000" font-family="sans-serif" font-size="13" lengthAdjust="spacingAndGlyphs" textLength="8" x="313.9282" y="680.3156">1</text><path d="M862.165,114.1781 C878.204,169.6201 913.543,291.7801 928.31,342.8251 " fill="none" style="stroke: #A80036; stroke-width: 1.0;"/><polygon fill="#A80036" points="860.767,109.3441,859.424,119.101,862.1557,114.1474,867.1093,116.8791,860.767,109.3441" style="stroke: #A80036; stroke-width: 1.0;"/><text fill="#000000" font-family="sans-serif" font-size="13" lengthAdjust="spacingAndGlyphs" textLength="8" x="853.4415" y="129.2006">1</text><text fill="#000000" font-family="sans-serif" font-size="13" lengthAdjust="spacingAndGlyphs" textLength="8" x="917.5707" y="331.8044">1</text><path d="M411,732.2571 C411,758.4661 411,791.3631 411,819.5921 " fill="none" style="stroke: #A80036; stroke-width: 1.0;"/><polygon fill="#A80036" points="411,727.1071,407,736.1071,411,732.1071,415,736.1071,411,727.1071" style="stroke: #A80036; stroke-width: 1.0;"/><path d="M579.299,882.4531 C620.649,882.4531 662.888,882.4531 697.326,882.4531 " fill="none" style="stroke: #A80036; stroke-width: 1.0; stroke-dasharray: 7.0,7.0;"/><polygon fill="#A80036" points="574.261,882.4531,583.261,886.4531,579.261,882.4531,583.261,878.4531,574.261,882.4531" style="stroke: #A80036; stroke-width: 1.0;"/><text fill="#000000" font-family="sans-serif" font-size="13" lengthAdjust="spacingAndGlyphs" textLength="87" x="592.25" y="875.52">bind &amp;&amp; start</text></g></svg>