<?xml version="1.0" encoding="UTF-8" standalone="yes"?><svg xmlns="http://www.w3.org/2000/svg" xmlns:xlink="http://www.w3.org/1999/xlink" height="717px" style="width:1355px;height:717px;" version="1.1" viewBox="0 0 1355 717" width="1355px"><defs><filter height="300%" id="f1" width="300%" x="-1" y="-1"><feGaussianBlur result="blurOut" stdDeviation="2.0"/><feColorMatrix in="blurOut" result="blurOut2" type="matrix" values="0 0 0 0 0 0 0 0 0 0 0 0 0 0 0 0 0 0 .4 0"/><feOffset dx="4.0" dy="4.0" in="blurOut2" result="blurOut3"/><feBlend in="SourceGraphic" in2="blurOut3" mode="normal"/></filter></defs><g><text fill="#000000" font-family="sans-serif" font-size="18" lengthAdjust="spacingAndGlyphs" textLength="290" x="537" y="16.708">Diagramme de classes - Sokoban</text><rect fill="#FEFECE" filter="url(#f1)" height="73.6094" style="stroke: #A80036; stroke-width: 1.5;" width="215" x="838.5" y="28.9531"/><ellipse cx="923.75" cy="44.9531" fill="#B4A7E5" rx="11" ry="11" style="stroke: #A80036; stroke-width: 1.0;"/><path d="M924.7031,41.7344 L924.7031,48.25 L926.4219,48.25 C926.875,48.25 927.0156,48.2813 927.1875,48.4063 C927.4219,48.5781 927.5313,48.8281 927.5313,49.1094 C927.5313,49.6719 927.1719,49.9531 926.4219,49.9531 L921.2813,49.9531 C920.875,49.9531 920.6719,49.9063 920.5156,49.7813 C920.2969,49.625 920.1563,49.3594 920.1563,49.1094 C920.1563,48.8125 920.3125,48.5313 920.5625,48.375 C920.7188,48.2656 920.8438,48.25 921.2813,48.25 L923,48.25 L923,41.7344 L921.2813,41.7344 C920.8594,41.7344 920.6719,41.7031 920.5156,41.5938 C920.2969,41.4219 920.1563,41.1719 920.1563,40.8906 C920.1563,40.6094 920.3125,40.3125 920.5625,40.1563 C920.7188,40.0625 920.8438,40.0469 921.2813,40.0469 L926.4219,40.0469 C926.875,40.0469 927.0156,40.0781 927.1875,40.1875 C927.4219,40.3594 927.5313,40.625 927.5313,40.8906 C927.5313,41.1875 927.3906,41.4688 927.125,41.625 C927,41.7031 926.8125,41.7344 926.4219,41.7344 Z "/><text fill="#000000" font-family="sans-serif" font-size="12" font-style="italic" lengthAdjust="spacingAndGlyphs" textLength="36" x="944.25" y="49.1074">Game</text><line style="stroke: #A80036; stroke-width: 1.5;" x1="839.5" x2="1052.5" y1="60.9531" y2="60.9531"/><line style="stroke: #A80036; stroke-width: 1.5;" x1="839.5" x2="1052.5" y1="68.9531" y2="68.9531"/><polygon fill="#4177AF" points="849.5,76.8555,845.5,82.8555,853.5,82.8555" style="stroke: #1963A0; stroke-width: 1.0;"/><text fill="#000000" font-family="sans-serif" font-size="11" font-style="italic" lengthAdjust="spacingAndGlyphs" textLength="189" x="858.5" y="83.1636">void keyPressed(KeyPress event)</text><polygon fill="#4177AF" points="849.5,89.6602,845.5,95.6602,853.5,95.6602" style="stroke: #1963A0; stroke-width: 1.0;"/><text fill="#000000" font-family="sans-serif" font-size="11" font-style="italic" lengthAdjust="spacingAndGlyphs" textLength="149" x="858.5" y="95.9683">void displaySizeChanged()</text><rect fill="#FEFECE" filter="url(#f1)" height="240.0703" style="stroke: #A80036; stroke-width: 1.5;" width="481" x="705.5" y="202.4531"/><ellipse cx="914.25" cy="218.4531" fill="#ADD1B2" rx="11" ry="11" style="stroke: #A80036; stroke-width: 1.0;"/><path d="M916.5938,214.125 L916.7656,214.2031 C916.9844,213.8906 917.1875,213.7969 917.4844,213.7969 C917.7813,213.7969 918.0625,213.9375 918.2188,214.2031 C918.3125,214.3594 918.3281,214.4844 918.3281,214.9219 L918.3281,216.3438 C918.3281,216.7656 918.2969,216.9531 918.1875,217.1094 C918.0156,217.3281 917.75,217.4688 917.4844,217.4688 C917.2656,217.4688 917.0313,217.3594 916.8906,217.2188 C916.75,217.0938 916.7188,216.9688 916.6563,216.5625 C916.5625,216.1563 916.3906,215.9375 915.9063,215.6563 C915.4375,215.4063 914.8281,215.25 914.25,215.25 C912.5156,215.25 911.2656,216.5625 911.2656,218.3438 L911.2656,219.4375 C911.2656,221.1406 912.5625,222.2344 914.6094,222.2344 C915.375,222.2344 916.0625,222.1094 916.4844,221.8438 C916.6719,221.75 916.6719,221.75 917.125,221.2656 C917.3125,221.0781 917.5156,221 917.7344,221 C918.2031,221 918.5938,221.3906 918.5938,221.8438 C918.5938,222.2344 918.2656,222.6875 917.6875,223.0938 C916.9375,223.6406 915.7813,223.9375 914.5625,223.9375 C911.6719,223.9375 909.5625,222.0469 909.5625,219.4688 L909.5625,218.3438 C909.5625,215.625 911.5625,213.5469 914.1875,213.5469 C915.0625,213.5469 915.6563,213.6875 916.5938,214.125 Z "/><text fill="#000000" font-family="sans-serif" font-size="12" lengthAdjust="spacingAndGlyphs" textLength="55" x="934.75" y="222.6074">Sokoban</text><line style="stroke: #A80036; stroke-width: 1.5;" x1="706.5" x2="1185.5" y1="234.4531" y2="234.4531"/><rect fill="none" height="6" style="stroke: #C82930; stroke-width: 1.0;" width="6" x="713.5" y="243.3555"/><text fill="#000000" font-family="sans-serif" font-size="11" lengthAdjust="spacingAndGlyphs" text-decoration="underline" textLength="131" x="725.5" y="248.6636">int DISPLAY_MIN_WIDTH</text><line style="stroke: #000000; stroke-width: 1.0;" x1="725.5" x2="856.5" y1="250.6636" y2="250.6636"/><rect fill="none" height="6" style="stroke: #C82930; stroke-width: 1.0;" width="6" x="713.5" y="256.1602"/><text fill="#000000" font-family="sans-serif" font-size="11" lengthAdjust="spacingAndGlyphs" text-decoration="underline" textLength="138" x="725.5" y="261.4683">int DISPLAY_MIN_HEIGHT</text><line style="stroke: #000000; stroke-width: 1.0;" x1="725.5" x2="863.5" y1="263.4683" y2="263.4683"/><rect fill="none" height="6" style="stroke: #C82930; stroke-width: 1.0;" width="6" x="713.5" y="268.9648"/><text fill="#000000" font-family="sans-serif" font-size="11" lengthAdjust="spacingAndGlyphs" textLength="74" x="725.5" y="274.2729">int levelIndex</text><line style="stroke: #A80036; stroke-width: 1.5;" x1="706.5" x2="1185.5" y1="280.8672" y2="280.8672"/><ellipse cx="716.5" cy="292.7695" fill="#84BE84" rx="3" ry="3" style="stroke: #038048; stroke-width: 1.0;"/><text fill="#000000" font-family="sans-serif" font-size="11" lengthAdjust="spacingAndGlyphs" textLength="166" x="725.5" y="295.0776">Sokoban(AnsiDisplay display)</text><rect fill="#F24D5C" height="6" style="stroke: #C82930; stroke-width: 1.0;" width="6" x="713.5" y="302.5742"/><text fill="#000000" font-family="sans-serif" font-size="11" lengthAdjust="spacingAndGlyphs" textLength="146" x="725.5" y="307.8823">void selectLevel(int index)</text><rect fill="#F24D5C" height="6" style="stroke: #C82930; stroke-width: 1.0;" width="6" x="713.5" y="315.3789"/><text fill="#000000" font-family="sans-serif" font-size="11" lengthAdjust="spacingAndGlyphs" textLength="455" x="725.5" y="320.687">Command performMovement(String name, Function&lt;Level, List&lt;Point&gt;&gt; move)</text><rect fill="#F24D5C" height="6" style="stroke: #C82930; stroke-width: 1.0;" width="6" x="713.5" y="328.1836"/><text fill="#000000" font-family="sans-serif" font-size="11" lengthAdjust="spacingAndGlyphs" textLength="261" x="725.5" y="333.4917">Command offsetLevel(String name, int offset)</text><rect fill="#F24D5C" height="6" style="stroke: #C82930; stroke-width: 1.0;" width="6" x="713.5" y="340.9883"/><text fill="#000000" font-family="sans-serif" font-size="11" lengthAdjust="spacingAndGlyphs" textLength="118" x="725.5" y="346.2964">void startRecording()</text><ellipse cx="716.5" cy="356.793" fill="#84BE84" rx="3" ry="3" style="stroke: #038048; stroke-width: 1.0;"/><text fill="#000000" font-family="sans-serif" font-size="11" lengthAdjust="spacingAndGlyphs" textLength="132" x="725.5" y="359.1011">Optional&lt;Level&gt; level()</text><ellipse cx="716.5" cy="369.5977" fill="#84BE84" rx="3" ry="3" style="stroke: #038048; stroke-width: 1.0;"/><text fill="#000000" font-family="sans-serif" font-size="11" lengthAdjust="spacingAndGlyphs" textLength="129" x="725.5" y="371.9058">KeyBindings bindings()</text><ellipse cx="716.5" cy="382.4023" fill="#84BE84" rx="3" ry="3" style="stroke: #038048; stroke-width: 1.0;"/><text fill="#000000" font-family="sans-serif" font-size="11" lengthAdjust="spacingAndGlyphs" textLength="223" x="725.5" y="384.7104">void setBindings(KeyBindings bindings)</text><ellipse cx="716.5" cy="395.207" fill="#84BE84" rx="3" ry="3" style="stroke: #038048; stroke-width: 1.0;"/><text fill="#000000" font-family="sans-serif" font-size="11" lengthAdjust="spacingAndGlyphs" textLength="216" x="725.5" y="397.5151">void pushBindings(KeyBindings binds)</text><ellipse cx="716.5" cy="408.0117" fill="#84BE84" rx="3" ry="3" style="stroke: #038048; stroke-width: 1.0;"/><text fill="#000000" font-family="sans-serif" font-size="11" lengthAdjust="spacingAndGlyphs" textLength="105" x="725.5" y="410.3198">void popBindings()</text><ellipse cx="716.5" cy="420.8164" fill="#84BE84" rx="3" ry="3" style="stroke: #038048; stroke-width: 1.0;"/><text fill="#000000" font-family="sans-serif" font-size="11" lengthAdjust="spacingAndGlyphs" textLength="177" x="725.5" y="423.1245">void keyPressed(KeyPress key)</text><ellipse cx="716.5" cy="433.6211" fill="#84BE84" rx="3" ry="3" style="stroke: #038048; stroke-width: 1.0;"/><text fill="#000000" font-family="sans-serif" font-size="11" lengthAdjust="spacingAndGlyphs" textLength="148" x="725.5" y="435.9292">void displaySizeChanged()</text><rect fill="#FEFECE" filter="url(#f1)" height="316.8984" style="stroke: #A80036; stroke-width: 1.5;" width="264" x="372" y="163.9531"/><ellipse cx="484.25" cy="179.9531" fill="#ADD1B2" rx="11" ry="11" style="stroke: #A80036; stroke-width: 1.0;"/><path d="M486.5938,175.625 L486.7656,175.7031 C486.9844,175.3906 487.1875,175.2969 487.4844,175.2969 C487.7813,175.2969 488.0625,175.4375 488.2188,175.7031 C488.3125,175.8594 488.3281,175.9844 488.3281,176.4219 L488.3281,177.8438 C488.3281,178.2656 488.2969,178.4531 488.1875,178.6094 C488.0156,178.8281 487.75,178.9688 487.4844,178.9688 C487.2656,178.9688 487.0313,178.8594 486.8906,178.7188 C486.75,178.5938 486.7188,178.4688 486.6563,178.0625 C486.5625,177.6563 486.3906,177.4375 485.9063,177.1563 C485.4375,176.9063 484.8281,176.75 484.25,176.75 C482.5156,176.75 481.2656,178.0625 481.2656,179.8438 L481.2656,180.9375 C481.2656,182.6406 482.5625,183.7344 484.6094,183.7344 C485.375,183.7344 486.0625,183.6094 486.4844,183.3438 C486.6719,183.25 486.6719,183.25 487.125,182.7656 C487.3125,182.5781 487.5156,182.5 487.7344,182.5 C488.2031,182.5 488.5938,182.8906 488.5938,183.3438 C488.5938,183.7344 488.2656,184.1875 487.6875,184.5938 C486.9375,185.1406 485.7813,185.4375 484.5625,185.4375 C481.6719,185.4375 479.5625,183.5469 479.5625,180.9688 L479.5625,179.8438 C479.5625,177.125 481.5625,175.0469 484.1875,175.0469 C485.0625,175.0469 485.6563,175.1875 486.5938,175.625 Z "/><text fill="#000000" font-family="sans-serif" font-size="12" lengthAdjust="spacingAndGlyphs" textLength="31" x="504.75" y="184.1074">Level</text><line style="stroke: #A80036; stroke-width: 1.5;" x1="373" x2="635" y1="195.9531" y2="195.9531"/><rect fill="none" height="6" style="stroke: #C82930; stroke-width: 1.0;" width="6" x="380" y="204.8555"/><text fill="#000000" font-family="sans-serif" font-size="11" lengthAdjust="spacingAndGlyphs" textLength="48" x="392" y="210.1636">int index</text><rect fill="none" height="6" style="stroke: #C82930; stroke-width: 1.0;" width="6" x="380" y="217.6602"/><text fill="#000000" font-family="sans-serif" font-size="11" lengthAdjust="spacingAndGlyphs" textLength="31" x="392" y="222.9683">int px</text><rect fill="none" height="6" style="stroke: #C82930; stroke-width: 1.0;" width="6" x="380" y="230.4648"/><text fill="#000000" font-family="sans-serif" font-size="11" lengthAdjust="spacingAndGlyphs" textLength="31" x="392" y="235.7729">int py</text><line style="stroke: #A80036; stroke-width: 1.5;" x1="373" x2="635" y1="242.3672" y2="242.3672"/><ellipse cx="383" cy="254.2695" fill="#84BE84" rx="3" ry="3" style="stroke: #038048; stroke-width: 1.0;"/><text fill="#000000" font-family="sans-serif" font-size="11" lengthAdjust="spacingAndGlyphs" textLength="202" x="392" y="256.5776">Level(int index, int width, int height)</text><ellipse cx="383" cy="267.0742" fill="#84BE84" rx="3" ry="3" style="stroke: #038048; stroke-width: 1.0;"/><text fill="#000000" font-family="sans-serif" font-size="11" lengthAdjust="spacingAndGlyphs" textLength="96" x="392" y="269.3823">void scanInside()</text><rect fill="#F24D5C" height="6" style="stroke: #C82930; stroke-width: 1.0;" width="6" x="380" y="276.8789"/><text fill="#000000" font-family="sans-serif" font-size="11" lengthAdjust="spacingAndGlyphs" textLength="152" x="392" y="282.187">void scanInside(int x, int y)</text><ellipse cx="383" cy="292.6836" fill="#84BE84" rx="3" ry="3" style="stroke: #038048; stroke-width: 1.0;"/><text fill="#000000" font-family="sans-serif" font-size="11" lengthAdjust="spacingAndGlyphs" textLength="56" x="392" y="294.9917">int index()</text><polygon fill="#4177AF" points="383,301.4883,379,307.4883,387,307.4883" style="stroke: #1963A0; stroke-width: 1.0;"/><text fill="#000000" font-family="sans-serif" font-size="11" lengthAdjust="spacingAndGlyphs" textLength="108" x="392" y="307.7964">Cell cell(int x, int y)</text><polygon fill="#4177AF" points="383,314.293,379,320.293,387,320.293" style="stroke: #1963A0; stroke-width: 1.0;"/><text fill="#000000" font-family="sans-serif" font-size="11" lengthAdjust="spacingAndGlyphs" textLength="56" x="392" y="320.6011">int width()</text><polygon fill="#4177AF" points="383,327.0977,379,333.0977,387,333.0977" style="stroke: #1963A0; stroke-width: 1.0;"/><text fill="#000000" font-family="sans-serif" font-size="11" lengthAdjust="spacingAndGlyphs" textLength="61" x="392" y="333.4058">int height()</text><polygon fill="#4177AF" points="383,339.9023,379,345.9023,387,345.9023" style="stroke: #1963A0; stroke-width: 1.0;"/><text fill="#000000" font-family="sans-serif" font-size="11" lengthAdjust="spacingAndGlyphs" textLength="118" x="392" y="346.2104">void setWall(Point pt)</text><polygon fill="#4177AF" points="383,352.707,379,358.707,387,358.707" style="stroke: #1963A0; stroke-width: 1.0;"/><text fill="#000000" font-family="sans-serif" font-size="11" lengthAdjust="spacingAndGlyphs" textLength="127" x="392" y="359.0151">void setCrate(Point pt)</text><polygon fill="#4177AF" points="383,365.5117,379,371.5117,387,371.5117" style="stroke: #1963A0; stroke-width: 1.0;"/><text fill="#000000" font-family="sans-serif" font-size="11" lengthAdjust="spacingAndGlyphs" textLength="131" x="392" y="371.8198">void setPlayer(Point pt)</text><polygon fill="#4177AF" points="383,378.3164,379,384.3164,387,384.3164" style="stroke: #1963A0; stroke-width: 1.0;"/><text fill="#000000" font-family="sans-serif" font-size="11" lengthAdjust="spacingAndGlyphs" textLength="133" x="392" y="384.6245">void setTarget(Point pt)</text><rect fill="#F24D5C" height="6" style="stroke: #C82930; stroke-width: 1.0;" width="6" x="380" y="392.1211"/><text fill="#000000" font-family="sans-serif" font-size="11" lengthAdjust="spacingAndGlyphs" textLength="238" x="392" y="397.4292">void setContent(Point pt, Content content)</text><polygon fill="#4177AF" points="383,403.9258,379,409.9258,387,409.9258" style="stroke: #1963A0; stroke-width: 1.0;"/><text fill="#000000" font-family="sans-serif" font-size="11" lengthAdjust="spacingAndGlyphs" textLength="85" x="392" y="410.2339">boolean done()</text><polygon fill="#4177AF" points="383,416.7305,379,422.7305,387,422.7305" style="stroke: #1963A0; stroke-width: 1.0;"/><text fill="#000000" font-family="sans-serif" font-size="11" lengthAdjust="spacingAndGlyphs" textLength="92" x="392" y="423.0386">List&lt;Point&gt; up()</text><polygon fill="#4177AF" points="383,429.5352,379,435.5352,387,435.5352" style="stroke: #1963A0; stroke-width: 1.0;"/><text fill="#000000" font-family="sans-serif" font-size="11" lengthAdjust="spacingAndGlyphs" textLength="104" x="392" y="435.8433">List&lt;Point&gt; right()</text><polygon fill="#4177AF" points="383,442.3398,379,448.3398,387,448.3398" style="stroke: #1963A0; stroke-width: 1.0;"/><text fill="#000000" font-family="sans-serif" font-size="11" lengthAdjust="spacingAndGlyphs" textLength="108" x="392" y="448.6479">List&lt;Point&gt; down()</text><polygon fill="#4177AF" points="383,455.1445,379,461.1445,387,461.1445" style="stroke: #1963A0; stroke-width: 1.0;"/><text fill="#000000" font-family="sans-serif" font-size="11" lengthAdjust="spacingAndGlyphs" textLength="96" x="392" y="461.4526">List&lt;Point&gt; left()</text><rect fill="#F24D5C" height="6" style="stroke: #C82930; stroke-width: 1.0;" width="6" x="380" y="468.9492"/><text fill="#000000" font-family="sans-serif" font-size="11" lengthAdjust="spacingAndGlyphs" textLength="179" x="392" y="474.2573">List&lt;Point&gt; move(int dx, int dy)</text><rect fill="#FEFECE" filter="url(#f1)" height="48" style="stroke: #A80036; stroke-width: 1.5;" width="90" x="1256" y="298.4531"/><ellipse cx="1271" cy="314.4531" fill="#ADD1B2" rx="11" ry="11" style="stroke: #A80036; stroke-width: 1.0;"/><path d="M1273.3438,310.125 L1273.5156,310.2031 C1273.7344,309.8906 1273.9375,309.7969 1274.2344,309.7969 C1274.5313,309.7969 1274.8125,309.9375 1274.9688,310.2031 C1275.0625,310.3594 1275.0781,310.4844 1275.0781,310.9219 L1275.0781,312.3438 C1275.0781,312.7656 1275.0469,312.9531 1274.9375,313.1094 C1274.7656,313.3281 1274.5,313.4688 1274.2344,313.4688 C1274.0156,313.4688 1273.7813,313.3594 1273.6406,313.2188 C1273.5,313.0938 1273.4688,312.9688 1273.4063,312.5625 C1273.3125,312.1563 1273.1406,311.9375 1272.6563,311.6563 C1272.1875,311.4063 1271.5781,311.25 1271,311.25 C1269.2656,311.25 1268.0156,312.5625 1268.0156,314.3438 L1268.0156,315.4375 C1268.0156,317.1406 1269.3125,318.2344 1271.3594,318.2344 C1272.125,318.2344 1272.8125,318.1094 1273.2344,317.8438 C1273.4219,317.75 1273.4219,317.75 1273.875,317.2656 C1274.0625,317.0781 1274.2656,317 1274.4844,317 C1274.9531,317 1275.3438,317.3906 1275.3438,317.8438 C1275.3438,318.2344 1275.0156,318.6875 1274.4375,319.0938 C1273.6875,319.6406 1272.5313,319.9375 1271.3125,319.9375 C1268.4219,319.9375 1266.3125,318.0469 1266.3125,315.4688 L1266.3125,314.3438 C1266.3125,311.625 1268.3125,309.5469 1270.9375,309.5469 C1271.8125,309.5469 1272.4063,309.6875 1273.3438,310.125 Z "/><text fill="#000000" font-family="sans-serif" font-size="12" lengthAdjust="spacingAndGlyphs" textLength="58" x="1285" y="318.6074">Renderer</text><line style="stroke: #A80036; stroke-width: 1.5;" x1="1257" x2="1345" y1="330.4531" y2="330.4531"/><line style="stroke: #A80036; stroke-width: 1.5;" x1="1257" x2="1345" y1="338.4531" y2="338.4531"/><rect fill="#FEFECE" filter="url(#f1)" height="112.0234" style="stroke: #A80036; stroke-width: 1.5;" width="144" x="158" y="266.4531"/><ellipse cx="214.75" cy="282.4531" fill="#ADD1B2" rx="11" ry="11" style="stroke: #A80036; stroke-width: 1.0;"/><path d="M217.0938,278.125 L217.2656,278.2031 C217.4844,277.8906 217.6875,277.7969 217.9844,277.7969 C218.2813,277.7969 218.5625,277.9375 218.7188,278.2031 C218.8125,278.3594 218.8281,278.4844 218.8281,278.9219 L218.8281,280.3438 C218.8281,280.7656 218.7969,280.9531 218.6875,281.1094 C218.5156,281.3281 218.25,281.4688 217.9844,281.4688 C217.7656,281.4688 217.5313,281.3594 217.3906,281.2188 C217.25,281.0938 217.2188,280.9688 217.1563,280.5625 C217.0625,280.1563 216.8906,279.9375 216.4063,279.6563 C215.9375,279.4063 215.3281,279.25 214.75,279.25 C213.0156,279.25 211.7656,280.5625 211.7656,282.3438 L211.7656,283.4375 C211.7656,285.1406 213.0625,286.2344 215.1094,286.2344 C215.875,286.2344 216.5625,286.1094 216.9844,285.8438 C217.1719,285.75 217.1719,285.75 217.625,285.2656 C217.8125,285.0781 218.0156,285 218.2344,285 C218.7031,285 219.0938,285.3906 219.0938,285.8438 C219.0938,286.2344 218.7656,286.6875 218.1875,287.0938 C217.4375,287.6406 216.2813,287.9375 215.0625,287.9375 C212.1719,287.9375 210.0625,286.0469 210.0625,283.4688 L210.0625,282.3438 C210.0625,279.625 212.0625,277.5469 214.6875,277.5469 C215.5625,277.5469 216.1563,277.6875 217.0938,278.125 Z "/><text fill="#000000" font-family="sans-serif" font-size="12" lengthAdjust="spacingAndGlyphs" textLength="22" x="235.25" y="286.6074">Cell</text><line style="stroke: #A80036; stroke-width: 1.5;" x1="159" x2="301" y1="298.4531" y2="298.4531"/><rect fill="none" height="6" style="stroke: #C82930; stroke-width: 1.0;" width="6" x="166" y="307.3555"/><text fill="#000000" font-family="sans-serif" font-size="11" lengthAdjust="spacingAndGlyphs" textLength="83" x="178" y="312.6636">boolean target</text><rect fill="none" height="6" style="stroke: #C82930; stroke-width: 1.0;" width="6" x="166" y="320.1602"/><text fill="#000000" font-family="sans-serif" font-size="11" lengthAdjust="spacingAndGlyphs" textLength="91" x="178" y="325.4683">boolean outside</text><line style="stroke: #A80036; stroke-width: 1.5;" x1="159" x2="301" y1="332.0625" y2="332.0625"/><polygon fill="#4177AF" points="169,339.9648,165,345.9648,173,345.9648" style="stroke: #1963A0; stroke-width: 1.0;"/><text fill="#000000" font-family="sans-serif" font-size="11" lengthAdjust="spacingAndGlyphs" textLength="118" x="178" y="346.2729">Content getContent()</text><polygon fill="#4177AF" points="169,352.7695,165,358.7695,173,358.7695" style="stroke: #1963A0; stroke-width: 1.0;"/><text fill="#000000" font-family="sans-serif" font-size="11" lengthAdjust="spacingAndGlyphs" textLength="104" x="178" y="359.0776">boolean isTarget()</text><polygon fill="#4177AF" points="169,365.5742,165,371.5742,173,371.5742" style="stroke: #1963A0; stroke-width: 1.0;"/><text fill="#000000" font-family="sans-serif" font-size="11" lengthAdjust="spacingAndGlyphs" textLength="111" x="178" y="371.8823">boolean isOutside()</text><rect fill="#FEFECE" filter="url(#f1)" height="99.2188" style="stroke: #A80036; stroke-width: 1.5;" width="82" x="6" y="272.9531"/><ellipse cx="21" cy="288.9531" fill="#EB937F" rx="11" ry="11" style="stroke: #A80036; stroke-width: 1.0;"/><path d="M19.2969,289.8281 L19.2969,292.25 L23.6563,292.25 L23.6563,291.375 C23.6563,290.8906 23.6875,290.75 23.7969,290.5938 C23.9688,290.3438 24.2344,290.2344 24.5,290.2344 C24.7813,290.2344 25.0625,290.3906 25.2344,290.6406 C25.3125,290.7969 25.3438,290.9375 25.3438,291.375 L25.3438,293.9531 L17.3438,293.9531 C16.9531,293.9531 16.7188,293.9063 16.5781,293.7813 C16.3594,293.625 16.2188,293.375 16.2188,293.1094 C16.2188,292.8125 16.375,292.5469 16.625,292.375 C16.7813,292.2656 16.9375,292.25 17.3438,292.25 L17.5938,292.25 L17.5938,285.7344 L17.3438,285.7344 C16.9219,285.7344 16.7344,285.7031 16.5781,285.5938 C16.3594,285.4219 16.2188,285.1719 16.2188,284.8906 C16.2188,284.6094 16.375,284.3125 16.625,284.1563 C16.7813,284.0625 16.9063,284.0469 17.3438,284.0469 L24.9688,284.0469 L24.9688,286.5938 C24.9688,287.0625 24.9375,287.2031 24.8281,287.375 C24.6563,287.5938 24.3906,287.7344 24.125,287.7344 C23.8438,287.7344 23.5625,287.5781 23.3906,287.3281 C23.3125,287.1719 23.2813,287 23.2813,286.5938 L23.2813,285.7344 L19.2969,285.7344 L19.2969,288.1406 L20.75,288.1406 L20.75,288.0156 C20.75,287.5625 20.7813,287.4063 20.8906,287.2344 C21.0625,287.0156 21.3281,286.875 21.5781,286.875 C22.0313,286.875 22.3438,287.1875 22.4063,287.6563 C22.4219,287.8125 22.4219,287.8594 22.4219,288.0156 L22.4219,289.9375 C22.4219,290.3906 22.3906,290.5469 22.2656,290.7031 C22.1094,290.9219 21.8438,291.0625 21.5938,291.0625 C21.2969,291.0625 21.0156,290.9063 20.8594,290.6563 C20.7813,290.5 20.75,290.3438 20.75,289.9375 L20.75,289.8281 Z "/><text fill="#000000" font-family="sans-serif" font-size="12" lengthAdjust="spacingAndGlyphs" textLength="50" x="35" y="293.1074">Content</text><line style="stroke: #A80036; stroke-width: 1.5;" x1="7" x2="87" y1="304.9531" y2="304.9531"/><text fill="#000000" font-family="sans-serif" font-size="11" lengthAdjust="spacingAndGlyphs" textLength="24" x="12" y="319.1636">Void</text><text fill="#000000" font-family="sans-serif" font-size="11" lengthAdjust="spacingAndGlyphs" textLength="22" x="12" y="331.9683">Wall</text><text fill="#000000" font-family="sans-serif" font-size="11" lengthAdjust="spacingAndGlyphs" textLength="35" x="12" y="344.7729">Player</text><text fill="#000000" font-family="sans-serif" font-size="11" lengthAdjust="spacingAndGlyphs" textLength="31" x="12" y="357.5776">Crate</text><line style="stroke: #A80036; stroke-width: 1.5;" x1="7" x2="87" y1="364.1719" y2="364.1719"/><rect fill="#FEFECE" filter="url(#f1)" height="86.4141" style="stroke: #A80036; stroke-width: 1.5;" width="162" x="696" y="589.9531"/><ellipse cx="733.95" cy="605.9531" fill="#A9DCDF" rx="11" ry="11" style="stroke: #A80036; stroke-width: 1.0;"/><path d="M735.5281,607.7656 L731.4813,607.7656 L731.0906,608.75 L731.4813,608.75 C731.9344,608.75 732.075,608.7813 732.2469,608.9063 C732.4656,609.0781 732.5906,609.3281 732.5906,609.6094 C732.5906,609.8906 732.45,610.1875 732.1844,610.3281 C732.0594,610.4219 731.8406,610.4531 731.4813,610.4531 L729.2156,610.4531 C728.4656,610.4531 728.0906,610.1719 728.0906,609.6094 C728.0906,609.3125 728.2469,609.0313 728.4969,608.875 C728.6531,608.7656 728.8094,608.75 729.2313,608.75 L731.8719,602.2344 L730.7938,602.2344 C730.3563,602.2344 730.1844,602.2031 730.0125,602.0938 C729.7938,601.9219 729.6531,601.6719 729.6531,601.3906 C729.6531,601.1094 729.8094,600.8281 730.0594,600.6563 C730.2156,600.5625 730.3406,600.5469 730.7938,600.5469 L734.4656,600.5469 L737.8563,608.75 C738.325,608.75 738.4813,608.7813 738.6531,608.9219 C738.8719,609.0781 739.0125,609.3281 739.0125,609.6094 C739.0125,609.8906 738.8563,610.1875 738.6063,610.3281 C738.4656,610.4219 738.2469,610.4531 737.8875,610.4531 L735.5281,610.4531 C735.1063,610.4531 734.9031,610.4063 734.7625,610.2813 C734.5438,610.125 734.4031,609.875 734.4031,609.6094 C734.4031,609.3125 734.5594,609.0313 734.8094,608.875 C734.9656,608.7656 735.075,608.75 735.5281,608.75 L735.9188,608.75 Z M734.825,606.0625 L733.4969,602.7969 L732.1531,606.0625 Z "/><text fill="#000000" font-family="sans-serif" font-size="12" font-style="italic" lengthAdjust="spacingAndGlyphs" textLength="79" x="753.05" y="610.1074">LevelFactory</text><line style="stroke: #A80036; stroke-width: 1.5;" x1="697" x2="857" y1="621.9531" y2="621.9531"/><line style="stroke: #A80036; stroke-width: 1.5;" x1="697" x2="857" y1="629.9531" y2="629.9531"/><ellipse cx="707" cy="641.8555" fill="#84BE84" rx="3" ry="3" style="stroke: #038048; stroke-width: 1.0;"/><text fill="#000000" font-family="sans-serif" font-size="11" lengthAdjust="spacingAndGlyphs" text-decoration="underline" textLength="114" x="716" y="644.1636">void load(String file)</text><line style="stroke: #000000; stroke-width: 1.0;" x1="716" x2="830" y1="646.1636" y2="646.1636"/><ellipse cx="707" cy="654.6602" fill="#84BE84" rx="3" ry="3" style="stroke: #038048; stroke-width: 1.0;"/><text fill="#000000" font-family="sans-serif" font-size="11" lengthAdjust="spacingAndGlyphs" text-decoration="underline" textLength="106" x="716" y="656.9683">int getNumLevels()</text><line style="stroke: #000000; stroke-width: 1.0;" x1="716" x2="822" y1="658.9683" y2="658.9683"/><ellipse cx="707" cy="667.4648" fill="#84BE84" rx="3" ry="3" style="stroke: #038048; stroke-width: 1.0;"/><text fill="#000000" font-family="sans-serif" font-size="11" lengthAdjust="spacingAndGlyphs" text-decoration="underline" textLength="136" x="716" y="669.7729">Level getLevel(int index)</text><line style="stroke: #000000; stroke-width: 1.0;" x1="716" x2="852" y1="671.7729" y2="671.7729"/><rect fill="#FEFECE" filter="url(#f1)" height="150.4375" style="stroke: #A80036; stroke-width: 1.5;" width="187" x="439.5" y="557.9531"/><ellipse cx="485.25" cy="573.9531" fill="#ADD1B2" rx="11" ry="11" style="stroke: #A80036; stroke-width: 1.0;"/><path d="M487.5938,569.625 L487.7656,569.7031 C487.9844,569.3906 488.1875,569.2969 488.4844,569.2969 C488.7813,569.2969 489.0625,569.4375 489.2188,569.7031 C489.3125,569.8594 489.3281,569.9844 489.3281,570.4219 L489.3281,571.8438 C489.3281,572.2656 489.2969,572.4531 489.1875,572.6094 C489.0156,572.8281 488.75,572.9688 488.4844,572.9688 C488.2656,572.9688 488.0313,572.8594 487.8906,572.7188 C487.75,572.5938 487.7188,572.4688 487.6563,572.0625 C487.5625,571.6563 487.3906,571.4375 486.9063,571.1563 C486.4375,570.9063 485.8281,570.75 485.25,570.75 C483.5156,570.75 482.2656,572.0625 482.2656,573.8438 L482.2656,574.9375 C482.2656,576.6406 483.5625,577.7344 485.6094,577.7344 C486.375,577.7344 487.0625,577.6094 487.4844,577.3438 C487.6719,577.25 487.6719,577.25 488.125,576.7656 C488.3125,576.5781 488.5156,576.5 488.7344,576.5 C489.2031,576.5 489.5938,576.8906 489.5938,577.3438 C489.5938,577.7344 489.2656,578.1875 488.6875,578.5938 C487.9375,579.1406 486.7813,579.4375 485.5625,579.4375 C482.6719,579.4375 480.5625,577.5469 480.5625,574.9688 L480.5625,573.8438 C480.5625,571.125 482.5625,569.0469 485.1875,569.0469 C486.0625,569.0469 486.6563,569.1875 487.5938,569.625 Z "/><text fill="#000000" font-family="sans-serif" font-size="12" lengthAdjust="spacingAndGlyphs" textLength="87" x="505.75" y="578.1074">LevelBlueprint</text><line style="stroke: #A80036; stroke-width: 1.5;" x1="440.5" x2="625.5" y1="589.9531" y2="589.9531"/><rect fill="none" height="6" style="stroke: #C82930; stroke-width: 1.0;" width="6" x="447.5" y="598.8555"/><text fill="#000000" font-family="sans-serif" font-size="11" lengthAdjust="spacingAndGlyphs" textLength="48" x="459.5" y="604.1636">int width</text><rect fill="none" height="6" style="stroke: #C82930; stroke-width: 1.0;" width="6" x="447.5" y="611.6602"/><text fill="#000000" font-family="sans-serif" font-size="11" lengthAdjust="spacingAndGlyphs" textLength="53" x="459.5" y="616.9683">int height</text><rect fill="none" height="6" style="stroke: #C82930; stroke-width: 1.0;" width="6" x="447.5" y="624.4648"/><text fill="#000000" font-family="sans-serif" font-size="11" lengthAdjust="spacingAndGlyphs" textLength="67" x="459.5" y="629.7729">Point player</text><rect fill="none" height="6" style="stroke: #C82930; stroke-width: 1.0;" width="6" x="447.5" y="637.2695"/><text fill="#000000" font-family="sans-serif" font-size="11" lengthAdjust="spacingAndGlyphs" textLength="99" x="459.5" y="642.5776">List&lt;Point&gt; walls</text><rect fill="none" height="6" style="stroke: #C82930; stroke-width: 1.0;" width="6" x="447.5" y="650.0742"/><text fill="#000000" font-family="sans-serif" font-size="11" lengthAdjust="spacingAndGlyphs" textLength="106" x="459.5" y="655.3823">List&lt;Point&gt; crates</text><rect fill="none" height="6" style="stroke: #C82930; stroke-width: 1.0;" width="6" x="447.5" y="662.8789"/><text fill="#000000" font-family="sans-serif" font-size="11" lengthAdjust="spacingAndGlyphs" textLength="111" x="459.5" y="668.187">List&lt;Point&gt; targets</text><line style="stroke: #A80036; stroke-width: 1.5;" x1="440.5" x2="625.5" y1="674.7813" y2="674.7813"/><polygon fill="#4177AF" points="450.5,682.6836,446.5,688.6836,454.5,688.6836" style="stroke: #1963A0; stroke-width: 1.0;"/><text fill="#000000" font-family="sans-serif" font-size="11" lengthAdjust="spacingAndGlyphs" textLength="161" x="459.5" y="688.9917">LevelBlueprint(String[] lines)</text><polygon fill="#4177AF" points="450.5,695.4883,446.5,701.4883,454.5,701.4883" style="stroke: #1963A0; stroke-width: 1.0;"/><text fill="#000000" font-family="sans-serif" font-size="11" lengthAdjust="spacingAndGlyphs" textLength="116" x="459.5" y="701.7964">Level build(int index)</text><rect fill="#FEFECE" filter="url(#f1)" height="48" style="stroke: #A80036; stroke-width: 1.5;" width="102" x="1169" y="41.9531"/><ellipse cx="1184" cy="57.9531" fill="#ADD1B2" rx="11" ry="11" style="stroke: #A80036; stroke-width: 1.0;"/><path d="M1186.3438,53.625 L1186.5156,53.7031 C1186.7344,53.3906 1186.9375,53.2969 1187.2344,53.2969 C1187.5313,53.2969 1187.8125,53.4375 1187.9688,53.7031 C1188.0625,53.8594 1188.0781,53.9844 1188.0781,54.4219 L1188.0781,55.8438 C1188.0781,56.2656 1188.0469,56.4531 1187.9375,56.6094 C1187.7656,56.8281 1187.5,56.9688 1187.2344,56.9688 C1187.0156,56.9688 1186.7813,56.8594 1186.6406,56.7188 C1186.5,56.5938 1186.4688,56.4688 1186.4063,56.0625 C1186.3125,55.6563 1186.1406,55.4375 1185.6563,55.1563 C1185.1875,54.9063 1184.5781,54.75 1184,54.75 C1182.2656,54.75 1181.0156,56.0625 1181.0156,57.8438 L1181.0156,58.9375 C1181.0156,60.6406 1182.3125,61.7344 1184.3594,61.7344 C1185.125,61.7344 1185.8125,61.6094 1186.2344,61.3438 C1186.4219,61.25 1186.4219,61.25 1186.875,60.7656 C1187.0625,60.5781 1187.2656,60.5 1187.4844,60.5 C1187.9531,60.5 1188.3438,60.8906 1188.3438,61.3438 C1188.3438,61.7344 1188.0156,62.1875 1187.4375,62.5938 C1186.6875,63.1406 1185.5313,63.4375 1184.3125,63.4375 C1181.4219,63.4375 1179.3125,61.5469 1179.3125,58.9688 L1179.3125,57.8438 C1179.3125,55.125 1181.3125,53.0469 1183.9375,53.0469 C1184.8125,53.0469 1185.4063,53.1875 1186.3438,53.625 Z "/><text fill="#000000" font-family="sans-serif" font-size="12" lengthAdjust="spacingAndGlyphs" textLength="70" x="1198" y="62.1074">AnsiDisplay</text><line style="stroke: #A80036; stroke-width: 1.5;" x1="1170" x2="1270" y1="73.9531" y2="73.9531"/><line style="stroke: #A80036; stroke-width: 1.5;" x1="1170" x2="1270" y1="81.9531" y2="81.9531"/><rect fill="#FEFECE" filter="url(#f1)" height="48" style="stroke: #A80036; stroke-width: 1.5;" width="106" x="893" y="608.9531"/><ellipse cx="908" cy="624.9531" fill="#ADD1B2" rx="11" ry="11" style="stroke: #A80036; stroke-width: 1.0;"/><path d="M910.3438,620.625 L910.5156,620.7031 C910.7344,620.3906 910.9375,620.2969 911.2344,620.2969 C911.5313,620.2969 911.8125,620.4375 911.9688,620.7031 C912.0625,620.8594 912.0781,620.9844 912.0781,621.4219 L912.0781,622.8438 C912.0781,623.2656 912.0469,623.4531 911.9375,623.6094 C911.7656,623.8281 911.5,623.9688 911.2344,623.9688 C911.0156,623.9688 910.7813,623.8594 910.6406,623.7188 C910.5,623.5938 910.4688,623.4688 910.4063,623.0625 C910.3125,622.6563 910.1406,622.4375 909.6563,622.1563 C909.1875,621.9063 908.5781,621.75 908,621.75 C906.2656,621.75 905.0156,623.0625 905.0156,624.8438 L905.0156,625.9375 C905.0156,627.6406 906.3125,628.7344 908.3594,628.7344 C909.125,628.7344 909.8125,628.6094 910.2344,628.3438 C910.4219,628.25 910.4219,628.25 910.875,627.7656 C911.0625,627.5781 911.2656,627.5 911.4844,627.5 C911.9531,627.5 912.3438,627.8906 912.3438,628.3438 C912.3438,628.7344 912.0156,629.1875 911.4375,629.5938 C910.6875,630.1406 909.5313,630.4375 908.3125,630.4375 C905.4219,630.4375 903.3125,628.5469 903.3125,625.9688 L903.3125,624.8438 C903.3125,622.125 905.3125,620.0469 907.9375,620.0469 C908.8125,620.0469 909.4063,620.1875 910.3438,620.625 Z "/><text fill="#000000" font-family="sans-serif" font-size="12" lengthAdjust="spacingAndGlyphs" textLength="74" x="922" y="629.1074">KeyBindings</text><line style="stroke: #A80036; stroke-width: 1.5;" x1="894" x2="998" y1="640.9531" y2="640.9531"/><line style="stroke: #A80036; stroke-width: 1.5;" x1="894" x2="998" y1="648.9531" y2="648.9531"/><rect fill="#FEFECE" filter="url(#f1)" height="48" style="stroke: #A80036; stroke-width: 1.5;" width="88" x="1034" y="608.9531"/><ellipse cx="1049" cy="624.9531" fill="#ADD1B2" rx="11" ry="11" style="stroke: #A80036; stroke-width: 1.0;"/><path d="M1051.3438,620.625 L1051.5156,620.7031 C1051.7344,620.3906 1051.9375,620.2969 1052.2344,620.2969 C1052.5313,620.2969 1052.8125,620.4375 1052.9688,620.7031 C1053.0625,620.8594 1053.0781,620.9844 1053.0781,621.4219 L1053.0781,622.8438 C1053.0781,623.2656 1053.0469,623.4531 1052.9375,623.6094 C1052.7656,623.8281 1052.5,623.9688 1052.2344,623.9688 C1052.0156,623.9688 1051.7813,623.8594 1051.6406,623.7188 C1051.5,623.5938 1051.4688,623.4688 1051.4063,623.0625 C1051.3125,622.6563 1051.1406,622.4375 1050.6563,622.1563 C1050.1875,621.9063 1049.5781,621.75 1049,621.75 C1047.2656,621.75 1046.0156,623.0625 1046.0156,624.8438 L1046.0156,625.9375 C1046.0156,627.6406 1047.3125,628.7344 1049.3594,628.7344 C1050.125,628.7344 1050.8125,628.6094 1051.2344,628.3438 C1051.4219,628.25 1051.4219,628.25 1051.875,627.7656 C1052.0625,627.5781 1052.2656,627.5 1052.4844,627.5 C1052.9531,627.5 1053.3438,627.8906 1053.3438,628.3438 C1053.3438,628.7344 1053.0156,629.1875 1052.4375,629.5938 C1051.6875,630.1406 1050.5313,630.4375 1049.3125,630.4375 C1046.4219,630.4375 1044.3125,628.5469 1044.3125,625.9688 L1044.3125,624.8438 C1044.3125,622.125 1046.3125,620.0469 1048.9375,620.0469 C1049.8125,620.0469 1050.4063,620.1875 1051.3438,620.625 Z "/><text fill="#000000" font-family="sans-serif" font-size="12" lengthAdjust="spacingAndGlyphs" textLength="56" x="1063" y="629.1074">KeyPress</text><line style="stroke: #A80036; stroke-width: 1.5;" x1="1035" x2="1121" y1="640.9531" y2="640.9531"/><line style="stroke: #A80036; stroke-width: 1.5;" x1="1035" x2="1121" y1="648.9531" y2="648.9531"/><path d="M946,123.1531 C946,146.5431 946,174.6481 946,202.2461 " fill="none" style="stroke: #A80036; stroke-width: 1.0; stroke-dasharray: 7.0,7.0;"/><polygon fill="none" points="939,123.1461,946,103.1461,953,123.1461,939,123.1461" style="stroke: #A80036; stroke-width: 1.0;"/><path d="M1191.51,93.4131 C1163.35,119.5711 1118.22,161.4861 1074.3,202.2881 " fill="none" style="stroke: #A80036; stroke-width: 1.0;"/><polygon fill="#A80036" points="1195.2,89.9871,1185.8825,93.1783,1191.5354,93.3887,1191.325,99.0417,1195.2,89.9871" style="stroke: #A80036; stroke-width: 1.0;"/><text fill="#000000" font-family="sans-serif" font-size="13" lengthAdjust="spacingAndGlyphs" textLength="8" x="1179.82" y="110.1516">1</text><text fill="#000000" font-family="sans-serif" font-size="13" lengthAdjust="spacingAndGlyphs" textLength="8" x="1073.8745" y="191.5773">1</text><path d="M946,442.7271 C946,501.3901 946,567.1781 946,603.6741 " fill="none" style="stroke: #A80036; stroke-width: 1.0;"/><polygon fill="#A80036" points="946,608.8414,950,599.8414,946,603.8414,942,599.8414,946,608.8414" style="stroke: #A80036; stroke-width: 1.0;"/><text fill="#000000" font-family="sans-serif" font-size="13" lengthAdjust="spacingAndGlyphs" textLength="8" x="937.7563" y="462.5822">1</text><text fill="#000000" font-family="sans-serif" font-size="13" lengthAdjust="spacingAndGlyphs" textLength="7" x="938.1031" y="597.8245">*</text><path d="M997.035,442.7271 C1022.24,501.6311 1050.52,567.7171 1066.09,604.1211 " fill="none" style="stroke: #A80036; stroke-width: 1.0;"/><polygon fill="#A80036" points="1068.11,608.8414,1068.238,598.9934,1066.1388,604.2464,1060.8859,602.1472,1068.11,608.8414" style="stroke: #A80036; stroke-width: 1.0;"/><text fill="#000000" font-family="sans-serif" font-size="13" lengthAdjust="spacingAndGlyphs" textLength="8" x="991.9012" y="462.5822">1</text><text fill="#000000" font-family="sans-serif" font-size="13" lengthAdjust="spacingAndGlyphs" textLength="7" x="1057.6788" y="597.8245">*</text><path d="M641.226,322.4531 C662.614,322.4531 684.002,322.4531 705.39,322.4531 " fill="none" style="stroke: #A80036; stroke-width: 1.0;"/><polygon fill="#A80036" points="636.082,322.4531,645.082,326.4531,641.082,322.4531,645.082,318.4531,636.082,322.4531" style="stroke: #A80036; stroke-width: 1.0;"/><text fill="#000000" font-family="sans-serif" font-size="13" lengthAdjust="spacingAndGlyphs" textLength="8" x="643.9492" y="319.0932">1</text><text fill="#000000" font-family="sans-serif" font-size="13" lengthAdjust="spacingAndGlyphs" textLength="8" x="689.3637" y="319.275">1</text><path d="M307.423,322.4531 C328.946,322.4531 350.47,322.4531 371.993,322.4531 " fill="none" style="stroke: #A80036; stroke-width: 1.0;"/><polygon fill="#A80036" points="302.246,322.4531,311.246,326.4531,307.246,322.4531,311.246,318.4531,302.246,322.4531" style="stroke: #A80036; stroke-width: 1.0;"/><text fill="#000000" font-family="sans-serif" font-size="13" lengthAdjust="spacingAndGlyphs" textLength="7" x="310.0573" y="318.7522">*</text><text fill="#000000" font-family="sans-serif" font-size="13" lengthAdjust="spacingAndGlyphs" textLength="8" x="356.1301" y="319.0932">1</text><path d="M93.2869,322.4531 C114.839,322.4531 136.391,322.4531 157.943,322.4531 " fill="none" style="stroke: #A80036; stroke-width: 1.0;"/><polygon fill="#A80036" points="88.1035,322.4531,97.1035,326.4531,93.1035,322.4531,97.1035,318.4531,88.1035,322.4531" style="stroke: #A80036; stroke-width: 1.0;"/><text fill="#000000" font-family="sans-serif" font-size="13" lengthAdjust="spacingAndGlyphs" textLength="8" x="96.1376" y="318.1764">1</text><text fill="#000000" font-family="sans-serif" font-size="13" lengthAdjust="spacingAndGlyphs" textLength="8" x="142.0996" y="318.7522">1</text><path d="M1186.6,322.4531 C1209.69,322.4531 1232.77,322.4531 1255.86,322.4531 " fill="none" style="stroke: #A80036; stroke-width: 1.0;"/><text fill="#000000" font-family="sans-serif" font-size="13" lengthAdjust="spacingAndGlyphs" textLength="8" x="1194.6259" y="319.275">1</text><text fill="#000000" font-family="sans-serif" font-size="13" lengthAdjust="spacingAndGlyphs" textLength="8" x="1240.0283" y="318.3353">1</text><path d="M880.66,442.7271 C853.348,492.5841 823.217,547.5871 802.513,585.3811 " fill="none" style="stroke: #A80036; stroke-width: 1.0; stroke-dasharray: 7.0,7.0;"/><polygon fill="#A80036" points="800.035,589.9031,807.8674,583.9321,802.4375,585.5181,800.8514,580.0882,800.035,589.9031" style="stroke: #A80036; stroke-width: 1.0;"/><text fill="#000000" font-family="sans-serif" font-size="13" lengthAdjust="spacingAndGlyphs" textLength="54" x="843" y="524.02">getLevel</text><path d="M631.997,632.9531 C653.259,632.9531 674.522,632.9531 695.784,632.9531 " fill="none" style="stroke: #A80036; stroke-width: 1.0;"/><polygon fill="#A80036" points="626.883,632.9531,635.883,636.9531,631.883,632.9531,635.883,628.9531,626.883,632.9531" style="stroke: #A80036; stroke-width: 1.0;"/><text fill="#000000" font-family="sans-serif" font-size="13" lengthAdjust="spacingAndGlyphs" textLength="7" x="634.6432" y="629.4102">*</text><text fill="#000000" font-family="sans-serif" font-size="13" lengthAdjust="spacingAndGlyphs" textLength="8" x="679.9282" y="629.3156">1</text><path d="M1228.93,95.0061 C1245.05,145.6551 1278.72,251.4501 1293.63,298.2881 " fill="none" style="stroke: #A80036; stroke-width: 1.0;"/><polygon fill="#A80036" points="1227.33,89.9871,1226.2425,99.7758,1228.8438,94.7525,1233.8671,97.3537,1227.33,89.9871" style="stroke: #A80036; stroke-width: 1.0;"/><text fill="#000000" font-family="sans-serif" font-size="13" lengthAdjust="spacingAndGlyphs" textLength="8" x="1220.1833" y="110.1516">1</text><text fill="#000000" font-family="sans-serif" font-size="13" lengthAdjust="spacingAndGlyphs" textLength="8" x="1282.7164" y="287.2579">1</text></g></svg>